<?xml version="1.0" encoding="utf-8"?>
<!-- Generator: Adobe Illustrator 24.0.1, SVG Export Plug-In . SVG Version: 6.00 Build 0)  -->
<svg version="1.1" id="Lager_1" xmlns="http://www.w3.org/2000/svg" xmlns:xlink="http://www.w3.org/1999/xlink" x="0px" y="0px"
	 viewBox="0 0 72 29" style="enable-background:new 0 0 72 29;" xml:space="preserve">
<style type="text/css">
	.st0{enable-background:new    ;}
</style>
<g class="st0">
	<path d="M9.7,20c0-0.1,0-0.1,0.1-0.1s0.1,0,0.1,0C9.9,20,10,20,10,20c0,0,0.1,0,0.1,0c-0.1,0-0.2-0.1-0.3-0.2
		c0.1-0.1,0.1-0.2,0.1-0.4c0.1,0,0.1-0.1,0.1-0.1c0,0-0.1-0.1-0.1,0c0-0.1,0.1-0.2,0.1-0.2s0.1-0.1,0-0.3c0.1,0,0.1,0,0.1,0
		c0,0,0-0.1-0.1-0.1c0,0,0,0,0-0.1c0,0,0.1,0,0.2,0c-0.1-0.1-0.2-0.2-0.3-0.2c0-0.1,0.1-0.1,0.2-0.1c0.1,0,0.2,0,0.3,0
		c-0.1,0-0.1-0.1-0.1-0.1s0-0.1,0-0.1c0,0,0,0,0-0.1c0,0-0.1,0-0.2,0c0-0.1,0-0.1,0.1-0.1s0.1,0,0.2-0.1c0,0,0.1-0.1,0.1-0.1
		c0-0.1,0.1-0.1,0.1-0.1c0-0.1-0.1-0.2-0.1-0.2c-0.1,0,0-0.1,0-0.2c0,0,0.1,0,0.1,0c0,0,0,0,0-0.1c0-0.1,0-0.2,0.1-0.2
		c0.1-0.1,0.1-0.2,0.1-0.2c0-0.1,0-0.1,0-0.2s0-0.1,0.1-0.1c0-0.1-0.1-0.2-0.2-0.2c-0.1,0-0.2-0.1-0.2-0.1c0,0,0,0.1,0,0.1
		c0,0.1,0,0.1-0.1,0.3c0,0,0,0-0.1,0s-0.1,0.1,0,0.1c0.1,0.1,0.1,0.1,0,0.1c-0.1,0-0.1,0-0.2,0c0,0,0,0.1,0.1,0.1s0.1,0.1,0.1,0.2
		c0,0-0.1,0.1-0.1,0.1c-0.1,0-0.1,0.1-0.1,0.1c0,0.1,0,0.1,0,0.2c0,0.1,0,0.1,0,0.1c0,0-0.1,0-0.1,0.1c-0.1,0-0.1,0-0.1,0.1
		c0,0,0,0.1,0,0.1c0,0.1,0,0.1,0,0.2c0,0.1,0,0.1,0,0.1s0,0,0,0C10,18,10,18,9.9,18c0,0.1,0,0.2,0.1,0.2c0,0.1,0,0.1-0.2,0.1
		c0,0.1,0,0.2,0.1,0.2c0.1,0,0.1,0.1,0.1,0.2c-0.1,0-0.1,0-0.1,0.1c0,0.1,0,0.1-0.1,0.2c0,0.1,0,0.1,0,0.2c0,0.1,0,0.1,0,0.1
		c0,0,0,0-0.1,0c-0.1,0-0.1,0-0.1,0c0,0.1,0,0.1,0,0.1c0,0,0.1,0.1,0.1,0.1c0,0,0,0.1,0.1,0.1c0,0,0,0.1-0.1,0.1l-0.1,0.1
		c0,0-0.1,0-0.1,0c0,0,0,0,0,0.1c0,0,0.1,0.1,0.1,0.1c0,0,0,0-0.1,0c0,0,0,0.1,0,0.1c0.1,0.1,0.1,0.1,0,0.1c-0.1,0-0.1,0-0.1,0.2
		c0,0.1,0,0.2,0,0.3c0.1,0.1,0,0.2-0.1,0.3c0.1,0.2,0.1,0.4,0.1,0.5c0,0.1-0.1,0.3-0.1,0.5c-0.1-0.1-0.2,0-0.2,0.1
		c0,0.1-0.1,0.1-0.2,0.1c-0.1,0-0.1,0-0.1,0.1c0,0.1,0,0.1-0.1,0.1c0,0-0.1,0-0.1,0c-0.1,0-0.1,0-0.1,0c0,0-0.1,0.1-0.2,0.1
		c-0.1,0-0.2,0.1-0.3,0.1c-0.1,0-0.1,0-0.2,0c0,0-0.1,0-0.1,0c-0.1,0-0.3,0-0.4,0c-0.1,0-0.2,0-0.4-0.1c0,0,0,0,0-0.1s0-0.1-0.1-0.1
		c-0.1,0-0.1,0-0.2-0.1c-0.1-0.1-0.2-0.1-0.3-0.1c-0.1,0-0.2,0-0.3,0c-0.1,0-0.2,0-0.2,0c0,0,0,0,0-0.1c0,0,0,0,0,0
		c-0.1,0-0.2-0.1-0.3-0.2S5.2,21.6,5,21.5c0,0,0-0.1-0.1-0.1s-0.1,0-0.1-0.1c0,0,0-0.1,0-0.1s0-0.1,0-0.1c0,0-0.1-0.1-0.1-0.1
		c-0.1-0.1-0.1-0.1-0.2-0.3c0,0,0-0.1,0-0.1c0,0,0-0.1,0-0.1H4.5H4.5c0,0,0-0.1,0-0.1c0-0.1,0-0.1,0-0.1c-0.1-0.1-0.1-0.1-0.1-0.2
		c0-0.1,0-0.1,0-0.3c0-0.2-0.1-0.4-0.1-0.6c0-0.3,0-0.5,0-0.8c0-0.3,0-0.6,0.1-0.8c0-0.3,0.1-0.5,0.1-0.7c0-0.1,0.1-0.2,0.1-0.4
		c0-0.1,0.1-0.2,0.1-0.4c0,0,0-0.1,0-0.1s0-0.1,0-0.1c0,0,0.1-0.1,0.1-0.1c0.1,0,0.1,0,0.1-0.1c0-0.1,0-0.1,0-0.2c0-0.1,0-0.1,0-0.2
		c0,0,0-0.1,0.1-0.1C5,15.5,5,15.4,5,15.4c0,0,0-0.1,0-0.1c0-0.1,0-0.1,0-0.1c0,0,0.1-0.1,0.1-0.1c0.1,0,0.1,0,0.1-0.1
		c0,0,0-0.1,0-0.1c0,0,0-0.1,0-0.1c0,0,0-0.1,0.1-0.1c0,0,0.1-0.1,0.1-0.1c0-0.1,0-0.1,0-0.2c0-0.1,0-0.1,0-0.2l0.2-0.2
		c0,0,0.1-0.1,0.1-0.1c0-0.1,0.1-0.1,0.1-0.2c0.1-0.1,0.2-0.2,0.3-0.4c0.1-0.2,0.2-0.3,0.4-0.4c0,0,0-0.1,0-0.1c0,0,0,0,0.1,0
		c0.1,0,0.2,0,0.2-0.1c0.1-0.1,0.2-0.2,0.3-0.2c0.1-0.1,0.2-0.2,0.3-0.2c0.1-0.1,0.1-0.1,0.3-0.1c0.1,0,0.3-0.1,0.5-0.1
		c0.2,0,0.3,0,0.5,0s0.3,0,0.4,0.1c0,0,0,0,0,0.1s0,0,0.1,0c0.1,0,0.1,0.1,0.2,0.1s0.1,0.1,0.2,0.1c0.1,0,0.2,0,0.3,0.1
		c0.1,0.1,0.2,0.1,0.3,0.2c0.2-0.1,0.3-0.2,0.3-0.4c0-0.2,0-0.4,0-0.5c0,0,0,0,0.1,0s0.1,0,0.1-0.1v-0.1c0-0.1,0.1-0.2,0.1-0.3
		c0-0.1,0-0.2,0.1-0.4c0,0,0,0,0,0s0,0,0-0.1v-0.1c0-0.1,0.1-0.1,0.1-0.2c0-0.1,0-0.2,0.1-0.3c0,0,0,0,0,0s0,0,0-0.1
		c0-0.1,0-0.2,0-0.3c0-0.1,0-0.2,0.1-0.3c0-0.1,0.1-0.1,0.1-0.2c0-0.1,0.1-0.2,0.1-0.3c0-0.1,0-0.2,0-0.2c0-0.1,0-0.1,0.1-0.2
		c0-0.1,0-0.1,0-0.2c0-0.1,0-0.2,0.1-0.3c0,0,0.1-0.1,0.1-0.1s0.1-0.1,0.1-0.1c0-0.1,0-0.2,0-0.3c0-0.1,0-0.2,0.1-0.3c0,0,0,0,0.1,0
		c0,0,0.1,0,0.1-0.1c0-0.1,0-0.2,0.1-0.4c0.1-0.1,0.1-0.3,0.2-0.4c0,0,0-0.1,0-0.1c0,0,0-0.1,0-0.1c0,0,0.1-0.1,0.1-0.2
		s0.1-0.2,0.2-0.3c0-0.1,0.1-0.2,0.1-0.3c0-0.1,0.1-0.2,0.1-0.3c0,0,0-0.1,0.1-0.1S13,5.1,13,5c0,0,0-0.1,0-0.1c0-0.1,0-0.1,0-0.1
		c0,0,0,0,0.1,0c0,0,0,0,0-0.1c0,0,0-0.1,0.1-0.1s0.1-0.1,0-0.2c0.2,0,0.4,0,0.6,0.1c0.2,0.1,0.2,0.2,0.2,0.5c0-0.1,0.1-0.1,0.3-0.1
		c0.1,0,0.2,0,0.2-0.1c0.1,0,0.2,0.1,0.2,0.1c0.1,0.1,0.1,0.1,0.1,0.2C15,4.9,15,4.9,15.1,5c0,0,0.1,0,0.3-0.1v0.3
		c0.1,0,0.1-0.1,0.1-0.1c0-0.1,0-0.1,0-0.2c0,0,0.1,0,0.1,0.1c0,0.1,0,0.1,0,0.1c0,0.1,0,0.1,0.1,0.1s0.1,0,0.1,0s0.1,0,0.1-0.1
		c0,0,0.1,0,0.1,0.1C16,5.5,16,5.8,15.9,6c-0.1,0.3-0.2,0.5-0.3,0.8V7c0,0.1,0,0.1-0.1,0.1s-0.1,0.1-0.1,0.2c0,0,0,0,0.1,0
		c0,0,0.1,0.1,0.1,0.1c0,0,0,0-0.1,0c0,0-0.1,0-0.1,0.1c0,0,0,0,0,0.1s0,0.1,0,0.1c-0.1,0.1-0.2,0.2-0.2,0.5C15,8.5,15,8.7,15,8.8
		c0,0.1-0.1,0.2-0.1,0.3c0,0.1,0,0.2,0,0.3c0,0-0.1,0-0.1,0.1s-0.1,0.1-0.1,0.1c0,0.1-0.1,0.3-0.1,0.4c0,0.2,0,0.3-0.1,0.4
		c0,0,0,0-0.1,0c0,0-0.1,0.1-0.1,0.1c0,0.1,0,0.2,0,0.2c0,0,0,0.1,0,0.3c0,0.1-0.1,0.2-0.1,0.3c0,0.1,0,0.2-0.1,0.3c0,0,0,0,0,0
		c0,0,0,0,0,0.1v0.1c0,0.1-0.1,0.2-0.1,0.4c0,0.2-0.1,0.3-0.1,0.5c0,0,0,0,0,0s0,0,0,0.1c0,0.1,0,0.1,0,0.3c0,0.1,0,0.2-0.1,0.3
		c-0.1,0.2-0.1,0.5-0.2,0.7c0,0.2-0.1,0.5-0.1,0.7c0,0,0,0.1,0,0.1c0,0,0,0.1,0,0.1c-0.1,0.1-0.1,0.2-0.1,0.3c0,0,0,0.1,0,0.1
		c0,0.1,0,0.1,0,0.1h-0.1c0,0.1-0.1,0.2-0.1,0.3c0,0.1,0,0.2,0,0.2C13.1,16.4,13,16.7,13,17c0,0.3-0.1,0.6-0.1,0.9
		c0,0.1,0,0.2,0,0.3c0,0.1,0,0.2,0,0.4c0,0.1-0.1,0.3-0.1,0.4c0,0.1-0.1,0.3-0.1,0.4c0,0.2-0.1,0.4-0.1,0.6c0,0.2,0,0.4-0.1,0.6
		c0,0.1,0,0.2-0.1,0.3c0,0.1,0,0.2-0.1,0.3c0,0,0,0.1,0,0.1c0,0,0,0.1,0,0.1c0,0,0,0-0.1,0.1c0,0-0.1,0-0.1,0c0,0,0,0.1,0.1,0.1
		c0,0,0.1,0.1,0,0.2c0,0,0,0,0,0s0,0.1-0.1,0.1c0,0,0,0.1,0,0.1c0,0,0,0.1,0,0.1c0,0.1,0,0.4-0.1,0.7s-0.1,0.5-0.1,0.7
		c-0.1,0-0.2,0-0.2,0c0-0.1-0.1-0.1-0.2-0.1c-0.1,0-0.1,0-0.1,0.1c0,0-0.1,0.1-0.1,0c-0.1,0-0.2-0.1-0.2-0.1c0,0-0.1-0.1-0.2-0.1
		c0,0,0,0,0,0c0,0,0,0-0.1,0c-0.1,0-0.2,0-0.3-0.1c0,0-0.1-0.1-0.1-0.3c-0.3,0.1-0.4,0-0.6,0s-0.2-0.2-0.4-0.2
		c-0.1-0.1-0.1-0.2,0-0.2c0.1-0.1,0.1-0.1,0.1-0.1c0,0,0-0.1,0-0.1c0,0,0-0.1,0-0.1c0,0,0,0,0.1,0s0,0,0-0.1c0,0,0,0,0,0
		c0,0,0,0,0-0.1c0,0,0,0,0.1-0.1c0,0,0,0-0.1,0c-0.1-0.1-0.1-0.2-0.1-0.2c0.1,0,0.1,0,0.1-0.1c0,0,0-0.1,0.1-0.1c0,0,0-0.1,0-0.1
		c-0.1,0-0.1,0-0.1,0.1c-0.1,0-0.1-0.1-0.1-0.1c0-0.1,0-0.1,0-0.2c0-0.1,0-0.1,0-0.2c0-0.1,0-0.1-0.1-0.2c0.1-0.1,0.2-0.1,0.3-0.2
		c-0.1,0-0.1-0.1-0.1-0.1c0,0,0-0.1,0-0.1c0,0,0,0,0-0.1c0,0,0,0-0.1-0.1C9.7,20.2,9.7,20.1,9.7,20C9.8,20.1,9.8,20,9.7,20z
		 M5.4,17.4c0,0,0-0.1,0-0.2c0-0.1,0-0.2,0.1-0.2c0-0.1,0-0.1,0-0.1c0,0,0,0-0.1,0c0,0.1,0,0.2-0.1,0.3S5.2,17.4,5.4,17.4z M10,14.5
		c-0.1,0-0.2,0-0.2,0c0,0-0.1-0.1-0.1-0.1s-0.1-0.1-0.1-0.1c0,0-0.1,0-0.1,0.1H9.3c-0.1,0.1-0.1,0.2-0.2,0.3S8.9,14.9,8.9,15
		c0,0,0,0.1-0.1,0.1c0,0-0.1,0.1-0.1,0.1c0,0-0.1,0.1-0.1,0.1s0,0.1-0.1,0.1c0,0-0.1,0.1-0.1,0.1c0,0-0.1,0.1-0.1,0.1
		c0,0.1-0.1,0.2-0.1,0.2c0,0-0.1,0.1-0.1,0.1c0,0-0.1,0.1-0.1,0.1c0,0,0,0.1,0,0.1c0,0.1,0,0.1,0,0.1s0,0.1-0.1,0.1
		c0,0-0.1,0.1-0.1,0.1c0,0.1-0.1,0.2-0.1,0.2c0,0.1-0.1,0.2-0.1,0.2c0,0.1,0,0.1-0.1,0.1s-0.1,0.1-0.1,0.1c0,0.1,0,0.1-0.1,0.1
		s0,0.1-0.1,0.1c0,0.1,0,0.1,0,0.2c0,0,0,0.1-0.1,0.1c-0.1,0.1-0.1,0.2-0.1,0.2s0,0.1,0,0.3c0,0.1,0,0.1-0.1,0.1c0,0,0,0,0,0
		c-0.1,0.4-0.1,0.7-0.2,1.1c0,0.4,0,0.7-0.1,1.1c0.2,0,0.3,0,0.3-0.1c0-0.1,0.1-0.2,0.2-0.3c0,0,0-0.1,0.1-0.1s0.1,0,0.1,0
		c0,0,0,0,0-0.1c0,0,0-0.1,0-0.1c0,0,0.1-0.1,0.1-0.1c0.1,0,0.1-0.1,0.1-0.2C7.9,19.5,8,19.5,8,19.4c0-0.1,0-0.1,0.1-0.3
		c0,0,0,0,0.1-0.1c0.1,0,0.1,0,0.1-0.1c0,0,0-0.1,0-0.1c0,0,0-0.1,0-0.1c0,0,0,0,0.1,0c0,0,0.1,0,0.1,0c0,0,0-0.1,0.1-0.1
		c0-0.1,0-0.1,0-0.1c0-0.1,0-0.1,0-0.1c0,0,0,0,0.1,0c0.1-0.2,0.2-0.4,0.3-0.7c0,0,0-0.1,0.1-0.1s0-0.1,0-0.1c0-0.1,0-0.2,0.1-0.2
		c0.1,0,0.1-0.1,0.1-0.2c0-0.1,0-0.1,0-0.1c0,0,0,0,0.1,0c0.1-0.1,0.1-0.2,0.1-0.4c0-0.1,0.1-0.3,0.1-0.4c0,0,0,0,0.1,0
		c0,0,0,0,0.1-0.1c0,0,0-0.1,0.1-0.2s0-0.1,0-0.1c0-0.1,0-0.1,0-0.1s0,0,0.1,0c0-0.1,0.1-0.2,0.1-0.2s0-0.1,0-0.3
		c0-0.1,0.1-0.2,0.1-0.4c0.1-0.2,0-0.3-0.1-0.4C10,14.3,10,14.4,10,14.5C10,14.5,10,14.5,10,14.5z M10.5,18.5c0.1,0,0.1,0,0.2,0.1
		c0.1,0,0.1,0,0.1-0.1c-0.1,0-0.1,0-0.2,0c0,0,0-0.1,0.2-0.1c0-0.1,0-0.2,0-0.2s-0.1-0.1-0.1-0.2c0,0,0.1,0,0.1,0c0,0,0,0-0.1-0.1
		c-0.1,0.1-0.1,0.2-0.1,0.3C10.7,18.3,10.6,18.4,10.5,18.5z M11.3,15.6c0,0-0.1,0-0.1,0s-0.1,0-0.1-0.1c0.1,0,0.1,0,0.2,0
		c0.1,0,0.1,0,0.1-0.1c-0.2,0-0.3,0-0.2-0.1c0.1-0.1,0.1-0.1,0.2-0.2h-0.1c0,0,0,0,0.1-0.1c0-0.1,0-0.1,0.1-0.1c0,0,0.1,0,0.1,0
		s0.1,0,0.1,0c-0.1-0.1-0.1-0.1-0.1-0.1c0,0,0-0.1,0.1-0.1s0.1-0.1,0.1-0.1c0,0,0-0.1-0.1-0.2c0.1,0,0.2,0,0.1-0.1s0-0.1-0.1-0.1
		c0-0.1,0-0.1,0-0.2c0,0,0.1,0,0.1,0c0,0,0.1,0,0.1,0c0,0,0-0.1,0-0.2c-0.1-0.1-0.1-0.1-0.1-0.1c0,0-0.1,0-0.1,0.1
		c0,0-0.1,0-0.1,0.1c0,0-0.1,0-0.1-0.1c0,0.2-0.1,0.3-0.1,0.4c0,0.1,0,0.2,0.1,0.4c-0.1,0-0.2,0-0.1,0.1c0,0.1,0.1,0.1,0,0.2
		s-0.1,0-0.1,0c-0.1,0-0.1,0-0.1,0.1h0.1c0,0,0,0-0.1,0.1c-0.1,0-0.1,0.1-0.1,0.1c0,0,0,0.1,0.1,0.1c0.1,0,0.1,0.1,0,0.1
		c-0.1,0-0.1,0-0.2,0c-0.1,0-0.1,0-0.1,0.1c0.1,0,0.1,0.1,0.1,0.2c-0.1,0-0.1,0-0.2,0s-0.1,0.1-0.1,0.1s0,0.1,0,0.1c0,0,0,0,0.1-0.1
		c0,0,0.1,0,0.1,0c0,0,0.1,0,0.1,0.1c-0.1,0-0.1,0-0.1,0.1c0,0.1-0.1,0.1-0.2,0.1c0,0.1,0,0.2,0.1,0.2c0.1,0,0.1,0,0.2,0
		c0.1,0,0.2-0.1,0.2-0.1S11.3,15.7,11.3,15.6z M11.4,18.2c0,0.1,0,0.2,0,0.3c0,0.1-0.1,0.1-0.2,0.1c0,0.1,0,0.2,0.1,0.2
		c0,0,0.1,0.1,0,0.2c-0.1,0-0.1,0.1-0.1,0.2c0,0.1-0.1,0.2-0.1,0.3c0,0.1,0,0.2,0,0.3c0,0.1,0.1,0.1,0.1,0.1c0-0.2,0-0.3,0-0.5
		c0-0.1,0.1-0.2,0.3-0.2v-0.8c0.1,0.1,0.1,0.1,0.2,0.1c0-0.1,0.1-0.2,0.1-0.2c-0.1,0-0.2,0-0.2,0C11.5,18.2,11.5,18.2,11.4,18.2z
		 M11.1,16.7c0.1,0,0.1,0,0.1-0.1c0,0,0-0.1,0.1-0.1C11.2,16.5,11.1,16.6,11.1,16.7c0,0,0,0.1,0,0.1c0,0.1,0,0.1,0.1,0.1
		C11.2,16.9,11.2,16.8,11.1,16.7z M11.5,12.7c0,0.1,0,0.3,0,0.3c0.1,0.1,0,0.2,0,0.3c0,0,0.1,0,0.1,0c0,0,0.1,0,0.1,0.1
		c0.2,0,0.4-0.1,0.4-0.2c-0.1,0-0.1,0-0.1-0.1s0-0.1,0.1-0.1c-0.2-0.1-0.3-0.1-0.3,0c0,0.1-0.1,0.1-0.2,0.2c0-0.1,0-0.2,0-0.3
		C11.6,12.8,11.6,12.8,11.5,12.7z M11.6,12.8c0.1,0,0.2,0,0.2,0.1s0.1,0,0.2,0c0-0.1,0-0.3,0.1-0.3c0.1-0.1,0.1-0.2,0.1-0.4
		c0,0,0.1,0,0.1,0c0.1,0,0.1-0.1,0-0.1c-0.1,0-0.2,0-0.2,0c0,0-0.1,0-0.1,0.1c0,0,0,0.1,0,0.1c0,0,0,0.1-0.1,0.1
		c0-0.1,0-0.1-0.1-0.1c-0.1,0-0.1,0.1,0,0.1c0.1,0.1,0.1,0.1,0.1,0.1c0,0,0,0.1-0.1,0.1s-0.1,0.1-0.1,0.1
		C11.7,12.7,11.6,12.8,11.6,12.8z M11.7,15.1c0,0,0,0,0-0.1c0-0.1,0-0.1,0-0.2c0,0,0,0,0.1-0.1c0,0,0.1,0,0.1-0.1c0,0,0,0,0,0
		c0,0-0.1,0-0.2,0c0,0,0,0.1,0,0.1s0,0.1-0.1,0.2C11.6,15,11.6,15,11.7,15.1C11.7,15.1,11.7,15.1,11.7,15.1z M11.8,11.2
		C11.8,11.3,11.9,11.3,11.8,11.2c0.1,0.1,0.1,0.1,0.1,0c0-0.1,0-0.3,0.1-0.4c0.1-0.2,0.1-0.3,0.1-0.4c-0.1-0.1-0.1-0.1-0.1,0
		c0,0.1-0.1,0.3-0.1,0.4C11.9,11,11.8,11.1,11.8,11.2z M12.1,17c0-0.1,0-0.2,0-0.3s0.1-0.1,0.1-0.2c-0.1,0-0.2,0-0.2-0.1
		c0-0.1-0.1-0.1-0.1-0.1c0.1,0.2,0.1,0.3,0.1,0.4S11.9,16.9,12.1,17z M12.2,16C12.2,16,12.2,16,12.2,16c-0.1,0-0.1,0-0.2,0.1
		l0.1,0.1c0,0,0.1,0.1,0.1,0.1c0,0,0,0-0.1,0.1c0,0,0,0.1,0,0.1c0.2,0,0.2-0.1,0.1-0.2c0.1-0.1,0.2-0.2,0.2-0.4c0-0.2,0-0.3-0.1-0.4
		c-0.1,0-0.1,0.1-0.1,0.2C12.3,15.8,12.3,15.9,12.2,16z M12.4,11.6c-0.1,0-0.1,0-0.1-0.1c0,0-0.1,0-0.1,0.1c0-0.1-0.1-0.2-0.1-0.2
		c-0.1,0.1,0,0.2,0.1,0.3S12.4,11.8,12.4,11.6z M12.3,9.1c0,0.1,0,0.2,0,0.3c-0.1,0.1-0.1,0.2-0.1,0.3c0,0.1,0.1,0.1,0.1,0
		s0.1-0.2,0.1-0.3c0-0.1,0-0.2,0.1-0.4c0-0.1,0-0.2,0.1-0.2c-0.1,0-0.1,0-0.1,0.1C12.4,9.1,12.4,9.1,12.3,9.1z M12.2,11.2
		c0,0,0.1,0,0.1,0c0.1,0,0.1,0,0.1,0c0,0,0.1,0,0.1-0.1c0,0,0-0.1-0.1-0.1c0,0,0,0.1-0.1,0.1S12.2,11.2,12.2,11.2z M12.3,13.5
		c0-0.1,0-0.3,0.1-0.3c0.1-0.1,0.1-0.2,0.2-0.3c-0.1,0-0.1,0-0.2,0.1c0,0.1-0.1,0.1-0.1,0.2c0,0.1,0,0.1,0,0.2
		C12.3,13.5,12.3,13.5,12.3,13.5z M12.3,15.1c0.2,0,0.3,0,0.3-0.1s0.1-0.2,0.1-0.2c-0.2,0-0.3,0-0.3,0.1S12.4,15,12.3,15.1z
		 M12.7,12.7c-0.1,0-0.1,0-0.1-0.1c0-0.1,0-0.1-0.1-0.1c-0.1,0.1,0,0.2,0,0.3S12.6,12.9,12.7,12.7z M12.7,14.5c0.1,0,0.1,0,0.1,0
		s0-0.1,0.1-0.2h0.1c0-0.1,0-0.1,0-0.1c0,0-0.1-0.1-0.1-0.1c0,0,0,0,0.1-0.1c0-0.1,0-0.1-0.1,0c0,0.1,0,0.2,0,0.3
		C12.7,14.3,12.7,14.4,12.7,14.5z M12.8,13.8c0.1,0,0.2,0,0.1,0c-0.1-0.1-0.1-0.1-0.1-0.1c0,0,0.1-0.1,0.1-0.1s0.1-0.1,0.1-0.1
		c-0.1,0-0.1,0-0.1-0.1c0-0.1,0-0.1-0.1-0.1c0,0.1,0,0.3,0,0.4C12.9,13.6,12.9,13.7,12.8,13.8z M13.4,12.4c0,0-0.1,0-0.1,0
		c-0.1,0-0.1,0,0,0.2h0.1c0.1,0,0.1,0,0,0.1c-0.1,0.2-0.2,0.2-0.3,0.1c0,0.1,0,0.2,0.1,0.2c0.1,0,0.2,0,0.2,0.1
		c0-0.1,0.1-0.2,0.1-0.3c0-0.1,0-0.2-0.1-0.3c0.1,0,0.2,0,0.2-0.1c0-0.1,0-0.2,0.1-0.2c-0.1,0-0.1,0-0.1,0.1S13.5,12.4,13.4,12.4z"
		/>
	<path d="M15.8,14.3c0,0.1,0.1,0.1,0.1,0.1c0,0,0.1-0.1,0.2-0.1c0-0.1,0-0.1,0-0.2c0-0.1,0-0.2,0-0.3c0,0,0,0,0.1,0
		c0.1,0,0.1,0,0.1,0c0,0,0-0.1,0-0.1c-0.1-0.1,0-0.1,0-0.1c0.1,0,0.1,0,0.2-0.1c0.1-0.1,0.1-0.2,0.2-0.3c0-0.1,0.1-0.2,0.3-0.3
		c0.1-0.1,0.2-0.2,0.2-0.3c0-0.1,0-0.1,0.1-0.2c0.1,0,0.2-0.1,0.2-0.2c0.1-0.1,0.2-0.2,0.3-0.2c0.1-0.1,0.1-0.1,0.1-0.1
		c0,0,0.1,0,0.1,0c0,0,0.1,0,0.1,0c0,0,0,0,0.1-0.1c0,0,0,0,0-0.1c0.1,0,0.1,0,0.1,0c0,0,0,0.1,0,0.1c0,0,0,0,0.1,0c0,0,0,0,0-0.1
		v-0.1c0,0,0.1,0,0.1,0s0.1,0,0.1,0.1c0.1,0,0.1,0,0.2,0s0.1,0,0.1,0.1c0.1,0,0.1,0,0.1,0c0,0,0.1-0.1,0.1-0.1c0,0,0.1-0.1,0.1-0.1
		c0,0,0.1,0,0.1,0.1c0.1,0,0.2,0,0.2,0c0,0,0.1,0,0.1,0.1c0,0,0.1,0.1,0.1,0.1c0,0,0.1,0,0.2,0c0,0.1,0,0.1,0.1,0.1
		c0.1,0,0.1,0,0.2,0c0,0,0.1,0.1,0.1,0.1c0,0.1,0.1,0.1,0.1,0.1c0.1,0,0.1,0,0.2,0c0.1,0,0.2,0,0.3,0c0,0,0,0,0,0.1
		c0,0.1,0,0.1,0,0.1c0,0,0.1,0,0.1-0.1c0.1-0.1,0.1-0.1,0.1,0c0,0,0.1,0.1,0.1,0.1c0.1,0.1,0.1,0.1,0.3,0.1c0,0.1,0.1,0.3,0.1,0.4
		c0.1,0.1,0.1,0.3,0.2,0.4c0,0,0,0.1,0,0.1c0,0.1,0,0.1,0,0.1c0.1,0.1,0.1,0.1,0.1,0.2c0,0.1,0,0.1,0,0.2c0,0,0,0.1,0.1,0.1
		s0.1,0,0.1,0c0,0.1,0,0.1-0.1,0.1c0,0,0,0-0.1,0c0,0.1,0,0.1,0.1,0.1s0.1,0,0.1,0c0,0,0,0-0.1,0.1c0,0,0,0-0.1,0
		c0,0.1,0,0.1,0.1,0.2c0,0.1,0,0.2,0,0.3c0,0,0,0.1-0.1,0.1c0,0,0,0,0,0c0,0,0,0.1,0.1,0.1s0.1,0.1,0.1,0.1c0,0,0,0.1-0.1,0.1
		c0,0,0,0.1-0.1,0.1c0,0.1-0.1,0.2-0.1,0.3s0,0.1,0,0.2v0.2c0,0-0.1,0.1-0.1,0.1c-0.1,0-0.1,0-0.1,0c-0.1,0.1-0.1,0.2-0.1,0.3
		c0,0.1,0,0.2,0,0.2L21.4,17c0,0-0.1,0.1-0.1,0.1c0,0-0.1,0-0.1,0c0,0.2-0.1,0.4-0.3,0.5c-0.2,0.1-0.3,0.3-0.4,0.4
		c-0.2,0.1-0.3,0.2-0.4,0.4c0,0.1,0,0.1,0.1,0.1s0.1,0,0.2,0s0.1,0,0.2,0.1s0.1,0.1,0,0.3h0.6c-0.1,0.1,0,0.2,0.1,0.2
		s0.3,0.1,0.4,0.1c0.1,0,0.2,0,0.3,0.1c0.1,0,0.1,0,0.1-0.1c0.1,0,0.1,0.1,0.1,0.1s0,0.1,0,0.1c0,0-0.1,0.1-0.1,0.1
		c0,0-0.1,0.1-0.1,0.1c0,0.1-0.1,0.2-0.2,0.3c-0.1,0.1-0.2,0.1-0.2,0.1c0.1,0.1,0,0.2-0.1,0.2c-0.1,0-0.2,0.1-0.2,0.2
		c0,0.1-0.1,0.1-0.1,0.2c0,0.1-0.1,0.1-0.1,0.2c0,0-0.1,0-0.1,0c-0.1,0-0.1,0-0.1,0c0,0-0.1,0.1-0.1,0.1c0,0-0.1,0.1-0.1,0.1
		c0,0,0,0.1,0,0.1c0,0,0,0.1,0,0.1c-0.1,0.1-0.2,0.2-0.3,0.3c-0.1,0.1-0.2,0.2-0.4,0.3c0,0-0.1,0.1-0.1,0.1s-0.1,0.1-0.1,0.1
		c-0.1,0-0.1,0.1-0.2,0.1c-0.1,0-0.1,0-0.1,0.1c0,0-0.1,0.1-0.1,0.1c0,0.1,0,0.1,0,0.1c0,0,0,0-0.1,0c0,0-0.1,0-0.1,0
		c0,0-0.1,0.1-0.1,0.1c0,0-0.1,0-0.1,0.1c-0.1,0.1-0.1,0.1-0.2,0.1c-0.1,0.1-0.2,0.1-0.3,0.1c-0.1,0-0.3,0.1-0.6,0.1
		c-0.3,0-0.5,0-0.7-0.1c0,0-0.1,0-0.1,0s-0.1,0-0.1,0c-0.1-0.1-0.2-0.1-0.3-0.2c0,0-0.1,0-0.1,0c0,0-0.1,0-0.1,0
		c-0.1-0.1-0.2-0.2-0.5-0.2c-0.2,0-0.4-0.1-0.5-0.2c0,0-0.1,0-0.1-0.1c0,0,0-0.1,0-0.1c0,0-0.1,0-0.1,0c0,0-0.1,0-0.1,0
		c0,0-0.1-0.1-0.1-0.1c0-0.1,0-0.1,0-0.1c0,0-0.1-0.1-0.1-0.1c0,0-0.1-0.1-0.1-0.1c-0.1-0.2-0.2-0.3-0.2-0.4c0-0.1-0.1-0.3-0.1-0.5
		c0-0.1,0-0.1-0.1-0.2c0-0.1,0-0.2-0.1-0.3c0-0.1-0.1-0.3-0.1-0.6c0-0.3,0-0.5,0-0.8c0-0.1,0-0.1,0-0.2s0-0.1,0.1-0.1
		c0-0.2,0-0.4,0-0.5c0-0.1,0-0.3,0.1-0.4c0,0,0-0.1,0-0.1c0,0,0-0.1,0-0.1c0.1-0.1,0.1-0.1,0-0.1c0,0,0,0,0,0c0,0,0,0,0-0.2
		c0-0.1,0-0.2,0-0.2c0,0,0.1-0.1,0.1-0.1c0.1,0,0.1-0.1,0.1-0.1c0-0.1,0-0.2,0-0.3c0-0.1,0-0.2,0.1-0.3c0,0,0,0,0,0c0,0,0,0,0.1-0.1
		v-0.1c0,0,0-0.1,0.1-0.1s0.1-0.1,0.1-0.1c0,0,0-0.1,0-0.1c0-0.1,0-0.1,0-0.1c0.1-0.1,0.2-0.3,0.4-0.6c0.1-0.3,0.3-0.5,0.4-0.7
		c0,0,0-0.1,0.1-0.1s0,0,0,0.1C16,14.2,15.9,14.3,15.8,14.3z M15.3,16.2C15.3,16.2,15.3,16.2,15.3,16.2c0.1,0.1,0.1,0.2,0.1,0.2
		h-0.1c0,0,0,0.1,0,0.2c0,0.1,0,0.2-0.1,0.3c0.1,0,0.1,0,0.1,0.1c-0.1,0-0.1,0.1-0.1,0.1c0,0,0.1,0.1,0.2,0.1c0.1,0.1,0.1,0.1,0,0.3
		c-0.1,0-0.1,0-0.1-0.1c0,0-0.1-0.1-0.1-0.1c0,0.1,0,0.1,0.1,0.2c0.1,0,0.1,0.1,0.1,0.1c-0.1,0-0.2,0-0.3,0.2C15,17.9,15,18,15.1,18
		c0.1-0.1,0.1-0.1,0.1,0s0,0.1,0,0.2c0,0.1,0,0.2,0,0.2c0,0.1,0.1,0.1,0.2,0v-0.6c0.1,0,0.1-0.1,0.1-0.3c0-0.2,0-0.3,0.1-0.3
		c0-0.1,0-0.2-0.1-0.2c-0.1,0-0.1-0.1-0.1-0.3c0-0.1,0.1-0.2,0.1-0.3c0-0.1,0.1-0.2,0.1-0.3c0.1-0.1,0.1-0.2,0.1-0.3
		c0-0.2,0-0.2-0.2-0.2c0.1,0.2,0.1,0.3,0,0.3C15.4,16,15.3,16.1,15.3,16.2z M15.2,19c0-0.1,0-0.1,0-0.2c0-0.1,0-0.1,0-0.1
		c0,0,0-0.1,0-0.1c0,0-0.1,0-0.1-0.1c0,0.1,0,0.2,0,0.3C15.1,19,15.1,19,15.2,19z M15.7,15c0,0.1-0.1,0.1-0.1,0.1c0,0,0,0,0.1,0.1
		c0,0,0,0.1-0.1,0.1c-0.1,0.1-0.1,0.1-0.1,0.1c0.2,0.1,0.3,0,0.3-0.1c0-0.1,0-0.3,0-0.4c0,0,0.1-0.1,0.1-0.1c0.1,0,0.1-0.1,0.1-0.1
		c-0.1,0-0.1,0-0.1-0.1c0-0.1,0-0.1-0.1-0.1C15.8,14.8,15.8,14.9,15.7,15z M15.6,16.9c0.2-0.1,0.2-0.3,0.2-0.5c0,0,0.1,0,0.1,0
		c0,0,0,0-0.1-0.1c0,0.1-0.1,0.2-0.1,0.3C15.6,16.7,15.6,16.8,15.6,16.9z M16.5,19.6C16.5,19.6,16.5,19.6,16.5,19.6
		c0.1-0.1,0.1-0.1,0.2,0c0-0.1,0-0.2,0-0.2s-0.1,0-0.1,0c0,0-0.1,0-0.1,0.1C16.4,19.5,16.4,19.6,16.5,19.6z M16.9,16.2
		c-0.1,0-0.2,0.1-0.2,0.3c0,0.2,0,0.3,0,0.3c-0.1,0.1-0.1,0.1-0.1,0.2c0,0.1,0,0.1,0,0.2c0,0.1,0,0.1,0,0.2s0,0.2-0.1,0.2
		c0.1,0.1,0.2,0.1,0.3,0.2c-0.1,0-0.1,0-0.2,0c0,0-0.1,0-0.1-0.1c0,0.1,0,0.2-0.1,0.3c0.1,0.1,0.1,0.1,0.2,0.1
		c0-0.1,0.1-0.1,0.1,0.1c0,0.1-0.1,0.2-0.3,0.3c0.1,0.1,0.2,0.2,0.2,0.2c0,0.1-0.1,0.1-0.2,0.1c0.1,0,0.1,0,0.1,0.1s0.1,0.1,0.1,0.2
		c0,0.1,0.1,0.1,0.1,0.1c0,0,0.1,0,0.1-0.1c-0.1,0-0.1-0.1-0.1-0.3s0-0.3,0-0.4c0.1-0.1,0.2-0.2,0.2-0.4c0-0.2,0-0.3,0.1-0.4
		c-0.1-0.1-0.2-0.3-0.2-0.4c0-0.1-0.1-0.2-0.1-0.3c0.1,0,0.1,0,0.1-0.1c0-0.1,0-0.2,0-0.2c0-0.1,0-0.2,0-0.2c0-0.1,0-0.1,0.1-0.1
		c0.1,0.1,0.1,0.2,0.1,0.2c0,0-0.1,0.1-0.1,0.2c0.2,0,0.3,0,0.3-0.1c0-0.1,0-0.3,0-0.4c0,0,0.1,0,0.1,0s0.1,0,0.1-0.1
		c-0.1,0-0.2,0-0.2,0C17.1,16,17,16,17,15.9c0,0-0.1-0.1-0.1-0.1c0,0-0.1,0-0.1,0.1c0.1,0,0.1,0,0.1,0.1
		C16.9,16.1,16.9,16.2,16.9,16.2z M17,15.1c-0.1,0.1-0.1,0.2-0.1,0.2c0.1,0.1,0.1,0.1,0.1,0.1c0,0-0.1,0.1-0.1,0.1
		c-0.1,0-0.1,0.1-0.1,0.1c0.1,0,0.2,0,0.2,0c0,0,0.1-0.1,0.1-0.2c0-0.1,0-0.1,0-0.2c0-0.1,0-0.1,0-0.2c0,0,0,0,0.1,0
		c0.1,0,0.1,0,0.1,0c0.1-0.1,0-0.1,0-0.3c-0.1-0.1-0.1-0.2-0.1-0.1c0.1,0.2,0.1,0.2,0.1,0.2S17.1,15,17,15.1z M17.2,17.1
		c-0.3,0-0.4,0-0.4,0.2c0.1,0,0.2,0,0.3,0S17.2,17.3,17.2,17.1z M19.2,18.9c0,0-0.1,0.1-0.1,0.1c0,0.1-0.1,0.1-0.1,0.1
		c-0.1,0-0.1,0.1-0.2,0.1c-0.1,0-0.1,0-0.1,0.1c0,0-0.1,0-0.1,0.1s-0.1,0.1-0.1,0.1c-0.1,0-0.1,0.1-0.2,0.1c-0.1,0-0.1,0-0.1,0
		c-0.1,0.1-0.2,0.1-0.3,0.1c-0.1,0-0.2,0.1-0.2,0.2c-0.1-0.1-0.2-0.1-0.3-0.1s-0.2,0-0.3,0.1c0,0.1,0,0.3,0,0.4c0,0.2,0,0.3,0,0.4
		c0,0.1,0,0.3,0,0.4c0,0.1,0.1,0.2,0.1,0.2c0.1-0.1,0.2-0.1,0.2-0.2c0.1-0.1,0.2-0.1,0.3-0.2c0.2-0.1,0.5-0.3,0.7-0.6
		s0.4-0.5,0.6-0.6c0,0,0-0.1,0-0.1c0-0.1,0-0.1,0-0.1c0,0,0.1-0.1,0.1-0.1c0.1,0,0.1,0,0.1-0.1c0,0,0.1-0.1,0.1-0.1c0,0,0,0,0.1-0.1
		c0,0,0.1-0.1,0.1-0.1c0,0,0.1-0.1,0.1-0.1c0,0,0.1-0.1,0.1-0.2c0.1-0.1,0-0.2,0-0.2c0,0.1-0.1,0.2-0.2,0.2
		C19.4,18.8,19.3,18.9,19.2,18.9z M17.2,14.6C17.3,14.6,17.3,14.6,17.2,14.6c0.1-0.1,0.1-0.2,0.1-0.2c0,0,0-0.1,0-0.1
		c0,0,0-0.1-0.1-0.1c0,0.1,0,0.1,0,0.1c0,0,0,0.1-0.1,0.1c0,0,0,0.1,0,0.1C17.1,14.6,17.2,14.6,17.2,14.6z M17.4,16v-0.2h-0.2V16
		H17.4z M17.2,15.5c0.1,0,0.2,0,0.2-0.1c0-0.1,0-0.2,0.1-0.2c-0.1,0-0.2,0-0.2,0.1C17.3,15.4,17.3,15.5,17.2,15.5z M17.5,13.9
		c-0.1,0.1-0.1,0.2-0.1,0.2s0.1,0.1,0.1,0.1s0.1,0,0.1-0.1C17.6,14.1,17.6,14,17.5,13.9z M17.7,13.5c0,0-0.1,0-0.1,0.1
		c0,0.1-0.1,0.1-0.1,0.2c0.2,0,0.3,0,0.3-0.1S17.8,13.5,17.7,13.5z M17.8,14.7C17.7,14.7,17.7,14.7,17.8,14.7
		c-0.1,0.1-0.2,0.1-0.2,0.2c0,0-0.1,0.1-0.1,0.3c0.1,0,0.1,0,0.2,0c0,0,0.1-0.1,0.1-0.1C17.7,14.9,17.8,14.8,17.8,14.7
		C17.8,14.7,17.8,14.7,17.8,14.7z M19.1,15.3C19,15.4,19,15.4,19.1,15.3C19,15.4,19,15.5,19,15.5c0,0.1-0.1,0.1-0.1,0.2
		c-0.1,0.1-0.1,0.1-0.1,0.2c0,0.1-0.1,0.1-0.1,0.2c0,0.1,0,0.1,0,0.2h-0.1c0,0,0,0,0,0.1s0,0.1,0,0.1h-0.1h-0.1c0,0,0,0,0,0.1
		c0,0,0,0,0,0.1c0,0,0,0.1,0,0.1c-0.1,0.1-0.2,0.2-0.2,0.3c-0.1,0-0.1,0.1,0,0.3c0.3-0.1,0.5-0.2,0.6-0.4c0.2-0.2,0.3-0.4,0.4-0.6
		c0.1-0.1,0.2-0.2,0.2-0.2c0-0.1,0.1-0.2,0.1-0.2c0.1-0.1,0.1-0.3,0.2-0.5c0.1-0.2,0.1-0.3,0.1-0.5c0,0,0-0.1,0-0.1s0-0.1-0.1-0.1
		c-0.1,0.1-0.2,0.2-0.3,0.4C19.2,15.1,19.1,15.2,19.1,15.3z"/>
	<path d="M30.8,15.2c-0.1,0-0.1,0-0.2,0c0,0,0,0,0,0c0,0,0,0,0.1-0.1c0,0,0-0.1,0-0.1c-0.1,0.1-0.2,0.2-0.3,0.1
		c-0.1,0-0.2,0-0.4,0.1c-0.1,0-0.1-0.1-0.1-0.1s0-0.1,0-0.1c-0.1-0.1-0.2-0.1-0.3-0.1s-0.2,0-0.3-0.1c-0.1-0.1-0.1-0.2-0.1-0.3
		c-0.1,0.1-0.1,0.2-0.2,0.3c-0.1,0-0.2-0.1-0.3-0.1c-0.1-0.1-0.1-0.1-0.3-0.1c-0.1,0-0.2,0.1-0.2,0.2c-0.1,0.1-0.1,0.2-0.2,0.3
		c0,0-0.1,0-0.1,0.1c-0.1,0-0.1,0-0.1,0.1c0,0,0,0,0,0.1c0,0,0,0.1,0,0.1c0,0,0,0-0.1,0s-0.1,0-0.1,0c0,0,0,0.1,0,0.1
		c0,0,0,0.1,0,0.1c0,0-0.1,0-0.1,0.1c-0.1,0-0.1,0-0.1,0.1c0,0,0,0.1,0,0.1c0,0,0,0.1,0,0.1c0,0,0,0.1-0.1,0.1c0,0-0.1,0.1-0.1,0.1
		c0,0.1-0.1,0.1-0.1,0.2c0,0.1,0,0.1-0.1,0.2c0,0,0,0.1-0.1,0.1c0,0-0.1,0-0.1,0.1c-0.1,0.1-0.1,0.2-0.1,0.3c0,0.1-0.1,0.2-0.1,0.3
		c0,0-0.1,0.1-0.1,0.1c0,0.1,0,0.1-0.1,0.2c0,0,0,0.1-0.1,0.1c0,0-0.1,0.1-0.1,0.1c0,0.1-0.1,0.2-0.1,0.2s0,0.1,0,0.2
		c0,0-0.1,0.1-0.1,0.1c0,0.1,0,0.1-0.1,0.2c0,0,0,0.1,0,0.1c0,0.1,0,0.1-0.1,0.1c0,0-0.1,0.1-0.1,0.1c-0.1,0-0.1,0.1-0.1,0.1
		c0,0.1,0,0.2,0,0.4c0,0.1,0,0.3,0,0.4c0,0,0,0-0.1,0c0,0,0,0,0,0.1c0,0,0,0.1,0,0.1c0,0,0,0,0,0.1c0,0.1-0.1,0.3-0.1,0.4
		c0,0.1,0,0.3-0.1,0.5c0,0.2-0.1,0.4-0.1,0.7s0.1,0.5,0.2,0.8c0.1,0,0.3-0.1,0.4-0.1s0.3-0.2,0.4-0.3c0.1,0,0.1-0.1,0.1-0.1
		c0-0.1,0.1-0.1,0.2-0.1c0.1-0.1,0.1-0.1,0.2-0.1c0.1,0,0.1,0,0.2-0.1c0.1-0.1,0.1-0.1,0.1-0.2c0-0.1,0.1-0.1,0.1-0.1c0,0,0,0,0.1,0
		c0,0,0.1,0,0.1,0v-0.1c0,0,0.1-0.1,0.1-0.2c0.1-0.1,0.1-0.2,0.2-0.2c0,0,0.1-0.1,0.1-0.1c0,0,0.1-0.1,0.1-0.1c0,0,0,0,0-0.1
		c0,0,0-0.1,0-0.1c0,0,0.1,0,0.1-0.1s0.1,0,0.1-0.1c0.1-0.1,0.1-0.2,0.1-0.3c0-0.1,0.1-0.2,0.1-0.3c0,0,0.1-0.1,0.1-0.1
		c0,0,0.1-0.1,0.1-0.1c0,0,0.1-0.1,0.1-0.2c0-0.1,0-0.2,0.1-0.2c0,0,0.1-0.1,0.2-0.1s0.1-0.1,0.1-0.1c0.1-0.1,0.1-0.2,0.1-0.3
		c0-0.1,0-0.2,0.1-0.3c0,0,0.1-0.1,0.1-0.1c0.1,0,0.1,0,0.1,0c0,0,0-0.1,0-0.1c0,0,0-0.1,0-0.1c0,0,0-0.1,0.1-0.1s0.1-0.1,0.1-0.1
		c0.1-0.1,0.1-0.2,0.1-0.4c0-0.1,0.1-0.2,0.3-0.2c0,0.1,0,0.1,0,0.1s0,0,0-0.1c0.1,0.1,0.2,0.1,0.2,0.1c0,0,0,0.1-0.1,0.3
		c0.1,0,0.2,0,0.2,0c0,0,0.1,0,0.1,0s0.1,0,0.1,0c0,0,0.1,0,0.2,0v0.3c0.1,0,0.1,0,0.1-0.1c0-0.1,0-0.1,0.1-0.1c0.1,0,0.1,0,0.1,0
		s0.1,0.1,0.1,0.1s0,0.1,0,0.1c0,0,0,0,0.1-0.1c0.1,0.1,0.3,0.1,0.5,0.1c0,0.2-0.1,0.4-0.2,0.6c-0.1,0.2-0.2,0.4-0.3,0.6
		c0,0,0,0-0.1,0c0,0,0,0,0,0.1c0,0,0,0.1,0,0.1c0,0,0,0-0.1,0.1c0,0,0,0.1,0,0.1c0,0.1,0,0.1-0.1,0.2c0,0,0,0.1-0.1,0.1
		c0,0-0.1,0.1-0.1,0.1c0,0-0.1,0.1-0.1,0.1c0,0.1,0,0.1-0.1,0c0,0.2,0,0.3-0.1,0.5c-0.1,0.1-0.2,0.3-0.3,0.4l-0.2,0.2
		c0,0-0.1,0.1-0.1,0.1c0,0.1-0.1,0.1-0.1,0.2c0,0-0.1,0-0.1,0c0,0,0,0,0,0.1c0,0.1-0.1,0.2-0.3,0.3c-0.2,0.1-0.3,0.3-0.3,0.4
		s-0.2,0.2-0.3,0.3c-0.1,0.1-0.2,0.1-0.4,0.2c-0.1,0.1-0.2,0.2-0.2,0.2c0,0.1-0.1,0.1-0.1,0.1c0,0,0,0-0.1,0c0,0-0.1,0-0.1,0v0.1
		v0.1c0,0-0.1,0-0.1,0c0,0-0.1,0-0.1,0v0.1c0,0-0.1,0-0.1,0c-0.1,0-0.1,0-0.1,0v0.1v0.1c0,0-0.1,0-0.1,0c0,0-0.1,0-0.1,0
		c-0.1,0.1-0.3,0.2-0.5,0.2s-0.5,0-0.7,0c-0.2,0-0.4-0.1-0.6-0.2c-0.3-0.1-0.5-0.2-0.7-0.3c0,0-0.1-0.1-0.1-0.1c0,0-0.1,0-0.2-0.1
		c0,0-0.1,0-0.1,0c0,0,0,0,0,0c-0.1-0.1-0.2-0.1-0.4-0.1s-0.2,0-0.2,0c0,0-0.1-0.1-0.1-0.1s0-0.1-0.1-0.1c-0.1,0-0.2-0.1-0.2-0.1
		c-0.1,0-0.1-0.1-0.3-0.2c-0.1-0.1-0.2-0.2-0.3-0.4c0,0,0,0,0-0.1s0-0.1,0-0.1c-0.1-0.1-0.1-0.1-0.2-0.2c0,0-0.1-0.1-0.1-0.2
		c0-0.1-0.1-0.3-0.2-0.6c-0.1-0.2-0.1-0.5-0.1-0.8c0-0.3,0-0.6,0-1c0-0.3,0.1-0.7,0.1-1c0.1-0.3,0.2-0.6,0.2-0.8c0,0,0-0.1,0-0.1
		c0,0,0-0.1,0-0.1h0h0.1c0-0.1,0.1-0.2,0.1-0.3s0-0.2,0.1-0.3h0.1l0.1-0.1c0-0.1,0-0.1,0.1-0.2c0.1-0.1,0.1-0.1,0.1-0.2
		c0,0,0-0.1,0.1-0.2c0-0.1,0.1-0.2,0.1-0.3c0,0,0,0,0.1,0c0,0,0,0,0.1-0.1c0-0.1,0-0.2,0.1-0.2c0.1-0.1,0.1-0.2,0.2-0.2
		c0-0.1,0.1-0.1,0.1-0.2s0.1-0.1,0.1-0.2c0,0,0-0.1,0.1-0.1c0,0,0.1-0.1,0.1-0.1c0,0,0.1-0.1,0.1-0.1s0-0.1,0.1-0.1
		c0.1-0.1,0.1-0.1,0.2-0.1c0.1,0,0.1-0.1,0.2-0.1c0,0,0-0.1,0-0.1c0-0.1,0-0.1,0-0.1c0.1-0.1,0.1-0.2,0.3-0.3
		c0.1-0.1,0.2-0.2,0.3-0.3c0-0.1,0-0.1,0.1-0.1c0.1,0,0.1-0.1,0.2-0.2c0-0.1,0.1-0.2,0.1-0.2c0,0,0.1-0.1,0.1-0.1s0.1,0,0.1-0.1
		c0,0,0-0.1,0-0.1c0-0.1,0-0.1,0.1-0.1c0.1,0,0.1-0.1,0.2-0.1c0.1,0,0.1,0,0.1-0.1c0,0,0,0,0-0.1c0,0,0,0,0.1-0.1
		c0.1,0,0.1,0,0.2-0.1s0.2-0.1,0.3-0.2c0,0,0.1,0,0.3,0c0.1,0,0.2,0,0.3-0.1c0-0.1,0.1-0.1,0.3-0.1c0.2,0,0.3,0,0.5,0.1
		c0,0,0,0,0,0.1c0,0,0,0,0.1,0c0.1,0,0.1,0,0.2,0.1c0.1,0,0.1,0.1,0.2,0.1l0.1,0c0,0,0,0,0.1,0c0.1,0.1,0.3,0.1,0.4,0.1
		c0.1,0,0.3,0.1,0.4,0.1c0,0,0,0,0,0.1c0,0,0,0.1,0.1,0.1h0.1c0.1,0,0.3,0.1,0.5,0.2c0.1,0,0.2,0.1,0.3,0.1c0.1,0.1,0.2,0.1,0.3,0.1
		c-0.1,0.1-0.1,0.2,0,0.3c0.1,0.1,0.2,0.1,0.2,0.1c0,0,0,0.1-0.1,0.1c0,0.1-0.1,0.1-0.1,0.2c0,0.2-0.1,0.4-0.1,0.5c0,0,0,0.1,0,0.1
		c0,0.1,0,0.1,0,0.1c0,0,0,0,0,0s0,0-0.1,0.1c0,0.1,0,0.1-0.1,0.3c-0.1,0.1-0.1,0.2-0.2,0.2c0.1,0,0.1,0.1,0.1,0.1
		c0,0.1-0.1,0.1-0.1,0.2c0,0.1-0.1,0.1-0.2,0.1C30.8,15.1,30.8,15.2,30.8,15.2z M23.7,19.7c0-0.1,0-0.1,0-0.2c0-0.1-0.1-0.1-0.1,0
		C23.6,19.5,23.6,19.6,23.7,19.7C23.7,19.8,23.7,19.7,23.7,19.7z M26.6,15.6c0-0.1,0-0.1,0-0.2c0-0.1,0-0.1-0.1-0.1s0,0.1,0,0.1
		c0,0.1,0,0.1,0,0.2s0,0.1,0,0.1c0,0,0,0-0.1,0c0,0,0,0,0-0.1c0-0.1,0-0.1-0.1-0.1c0,0.1,0,0.2,0.1,0.3c-0.2,0-0.3,0-0.3,0.1
		c0,0.1,0,0.2,0,0.4c-0.2,0-0.3,0.1-0.3,0.3c0,0.2,0,0.3-0.1,0.5c-0.2,0-0.3,0.1-0.4,0.2c0.1,0,0.1,0.1,0.1,0.1s0,0.1,0,0.1
		c0,0.1-0.1,0.1-0.1,0.2c0,0.1,0,0.1,0,0.2c-0.1,0-0.1,0-0.2,0c0,0,0,0.1,0,0.2c0,0.1,0,0.2,0,0.2c0,0.1,0,0.1,0,0.2
		c0,0-0.1,0-0.1,0.1c-0.1,0-0.1,0-0.1,0.1c0,0.1,0,0.2,0,0.3c0,0.1,0,0.2,0,0.2c-0.2-0.1-0.2-0.1-0.2-0.1c0.1,0,0.1,0.1,0.1,0.2
		c0,0,0,0-0.1,0s-0.1,0,0,0.1c0,0,0,0.1,0.1,0.1s0,0,0,0.1c0,0.1,0,0.1-0.1,0.1c0,0,0,0.1,0,0.2c0,0.1,0,0.3,0.1,0.5
		c0,0.2,0.1,0.2,0.3,0.1c0-0.1,0-0.1-0.1-0.2s0-0.1,0.1-0.1c0,0,0,0,0-0.1c0-0.1,0-0.1,0-0.1c0-0.1,0-0.2,0-0.2s0-0.1,0-0.2
		c0,0,0,0,0.1,0s0.1,0,0.1,0c0-0.1,0-0.2,0-0.2c0,0-0.1-0.1,0-0.2c0.1,0,0.2,0,0.2,0s0-0.1,0-0.1s0-0.1,0-0.1c0,0,0.1,0,0.2,0
		c0-0.2,0-0.3,0-0.3c0,0,0.1-0.1,0.2-0.1c-0.1,0-0.1,0-0.1-0.1s0,0,0-0.1c0,0,0,0,0-0.1s0-0.1-0.1-0.1c0.2,0,0.2-0.1,0.2-0.2
		c0-0.1,0-0.2,0.1-0.3c0-0.1,0.1-0.1,0.1-0.1c0.1,0,0.1,0,0.1-0.1c0,0,0,0-0.1,0c-0.1,0-0.1,0-0.1-0.1c0,0,0-0.1,0.1-0.1
		c0-0.1,0.1-0.1,0.1-0.1c0,0,0.1-0.1,0.1-0.1s0-0.1,0.1-0.2c0-0.1,0.1-0.2,0.1-0.2c0-0.1,0.1-0.1,0.1-0.2c0.1-0.1,0.2-0.4,0.2-0.7
		c0.1,0,0.2,0,0.3-0.1c0-0.1,0-0.2,0-0.3c0.1-0.1,0.1-0.2,0.2-0.2c0.1-0.1,0.1-0.1,0.1-0.2c0-0.1,0-0.1-0.1-0.2
		c-0.1,0.2-0.2,0.3-0.4,0.4c0,0,0,0.1,0,0.3C26.7,15.5,26.6,15.6,26.6,15.6z M27.4,14.7C27.4,14.7,27.4,14.7,27.4,14.7
		c0.1-0.1,0.1-0.1,0.1-0.2c0,0,0.1,0,0.1-0.1c0,0,0,0-0.1,0c0,0,0,0-0.1,0.1c0,0-0.1,0-0.1,0.1c0,0,0,0.1-0.1,0.1
		C27.3,14.7,27.3,14.7,27.4,14.7z"/>
	<path d="M35.3,13.1c0.1-0.1,0.2-0.2,0.4-0.2c0.2,0,0.3-0.1,0.5-0.1c0.1-0.1,0.2-0.3,0.3-0.4c0.1-0.1,0.2-0.3,0.3-0.4
		c0.1-0.1,0.2-0.3,0.3-0.4c0.1-0.1,0.2-0.2,0.4-0.2c0-0.2,0-0.3,0.2-0.4c0.2-0.1,0.3-0.2,0.4-0.3c0,0,0,0,0-0.1c0,0,0-0.1,0-0.1
		c0.1,0,0.1-0.1,0.2-0.1c0.1,0,0.1,0,0.2-0.1c0.1,0,0.2-0.1,0.3-0.1c0.1-0.1,0.2-0.1,0.3-0.1c0.1,0,0.3-0.1,0.5-0.1s0.4,0,0.6,0.1
		c0.1,0,0.2,0.1,0.4,0.1c0.1,0.1,0.2,0.1,0.4,0.2c0.1,0,0.1,0.1,0.2,0.1c0.1,0,0.1,0,0.2,0.1c0,0,0.1,0,0.1,0.1s0.1,0.1,0.1,0.1
		c0.1,0,0.2,0.1,0.2,0.1c0.1,0,0.1,0,0.2,0.1c0.1,0,0.2,0.1,0.2,0.1c0.1,0,0.2,0,0.2,0.1c0,0,0.1,0,0.1,0.1s0,0,0,0.1
		c0,0,0.1,0,0.1,0c0.1,0,0.1,0,0.1,0.1c0,0,0,0,0,0.1s0,0.1,0,0.1c0.1,0.1,0.1,0.1,0.1,0.1s0,0.1,0.1,0.2c0,0.1,0,0.1,0.1,0.2
		c0,0.1,0.1,0.1,0.1,0.2c0,0,0,0.1,0,0.1c0,0,0,0.1,0,0.1c0,0,0,0.2,0.1,0.4s0,0.4,0,0.6c0,0,0,0.1-0.1,0.1c0,0,0,0,0,0
		c0,0,0,0.1,0.1,0.1c0,0,0,0.1,0,0.1c0,0,0,0-0.1,0s0,0,0,0.1c0,0.1,0,0.2,0,0.2c0,0.1,0,0.2,0,0.2c0,0-0.1,0-0.1,0c0,0,0,0.1,0,0.1
		c0.1,0.1,0.1,0.1,0.1,0.1s-0.1,0-0.1,0c0,0.2,0,0.3,0,0.4s0,0.3-0.1,0.5c0,0,0,0-0.1,0.1c0,0-0.1,0.1,0,0.1c0,0,0,0,0.1,0
		c0,0,0,0,0,0.1c0,0,0,0,0,0c0,0,0,0-0.1,0.1V16c0,0.1-0.1,0.3-0.2,0.5s-0.1,0.5-0.2,0.7c-0.1,0.4-0.2,0.8-0.4,1.1
		c-0.1,0.4-0.3,0.7-0.4,1.1c0,0.1-0.1,0.1-0.1,0.2c0,0-0.1,0.1-0.1,0.2c0,0,0,0,0.1,0c0,0,0,0.1,0,0.1c-0.1,0.1-0.1,0.1-0.2,0.2
		c0,0.1-0.1,0.2-0.1,0.3c0,0.1,0,0.1-0.1,0.2c0,0.1-0.1,0.1-0.1,0.2c0,0-0.1,0.1-0.1,0.1c0,0.1-0.1,0.1-0.1,0.2
		c0,0.1-0.1,0.1-0.1,0.1l-0.1,0.1l-0.1,0.1c0,0,0.1,0,0.1,0s0,0.1,0,0.1c0,0-0.1,0.1-0.1,0.1c0,0,0,0.1-0.1,0.1c0,0,0,0-0.1,0
		c0,0-0.1,0-0.1,0v0.1v0c0,0.1-0.1,0.1-0.1,0.2s-0.1,0.1-0.1,0.1c-0.1,0.1-0.2,0.2-0.2,0.3c-0.1,0.1-0.2,0.3-0.2,0.4
		c0,0-0.1,0-0.1,0c-0.1,0-0.1,0-0.1,0c0,0,0,0.1,0,0.1s0,0.1,0,0.1c0,0-0.1,0.1-0.1,0.1c-0.1,0-0.1,0.1-0.1,0.1s-0.1,0.1-0.1,0.1
		c0,0.1-0.1,0.1-0.1,0.1c0,0,0,0-0.1,0c0,0-0.1,0-0.1,0c-0.1,0.1-0.1,0.1-0.2,0.2c0,0-0.1,0.1-0.2,0.2C38.2,23.9,38,24,37.7,24
		c-0.2,0.1-0.6,0.1-1,0c0,0-0.1,0-0.2,0c-0.1,0-0.1,0-0.2-0.1c-0.1,0-0.2,0-0.3-0.1c-0.1,0-0.2-0.1-0.3-0.1c0,0,0,0,0-0.1
		c0,0,0,0-0.1,0c-0.1,0-0.2,0-0.3-0.1c0,0-0.1,0-0.2,0c-0.1,0-0.2,0-0.2-0.1v-0.1c-0.2,0-0.3,0-0.4-0.1c0,0,0-0.1,0-0.1
		c0-0.1,0-0.1,0-0.1c0,0-0.1,0-0.1,0c0,0-0.1,0-0.1,0c-0.1,0-0.1-0.1-0.1-0.2c0-0.1-0.1-0.1-0.1-0.2c-0.1-0.1-0.2-0.1-0.3-0.2
		c-0.1-0.1-0.2-0.1-0.2-0.2c0-0.1-0.1-0.1-0.1-0.2c0-0.1,0-0.1-0.1-0.2c0,0,0-0.1-0.1-0.1s-0.1-0.1-0.1-0.1
		c-0.1-0.3-0.2-0.6-0.3-0.9c-0.1-0.4-0.1-0.7-0.1-1c0-0.3,0-0.7,0.1-1.1c0.1-0.4,0.1-0.8,0.2-1.1c0,0,0,0,0.1,0s0.1,0,0.1-0.1
		c0-0.1,0-0.2,0-0.2c0-0.1,0-0.1,0.1-0.2c0-0.1,0-0.1,0-0.2c0-0.1,0-0.2,0-0.3c0,0,0,0,0.1,0s0,0,0-0.1c0,0,0-0.1,0-0.1
		c0,0,0-0.1,0.1-0.1c0.1-0.1,0.1-0.3,0.2-0.4c0.1-0.2,0.1-0.3,0.2-0.5c0,0,0.1-0.1,0.2-0.3c0.1-0.1,0.1-0.3,0.2-0.3
		c0,0,0-0.1,0.1-0.2s0.1-0.2,0.1-0.2l0.1-0.1c0,0,0.1-0.1,0.1-0.1c0-0.1,0-0.1,0.1-0.2c0,0,0,0,0.1,0c0.1,0,0.1,0,0.1,0
		c0,0,0.1-0.1,0.1-0.2s0-0.2,0.1-0.2c0,0,0.1-0.1,0.2-0.1S35.3,13.2,35.3,13.1z M33.9,18.8c0-0.1,0-0.1,0-0.2c0-0.1-0.1-0.1-0.1,0
		C33.7,18.7,33.7,18.7,33.9,18.8C33.8,18.9,33.8,18.9,33.9,18.8z M34.3,17.1c0,0,0-0.1,0.1-0.1c0-0.1,0.1-0.2,0.1-0.2
		c0-0.1,0-0.1,0-0.1s0,0-0.1,0c0,0,0,0.1-0.1,0.1s-0.1,0.2-0.1,0.2C34.2,17.1,34.2,17.1,34.3,17.1C34.2,17.2,34.2,17.2,34.3,17.1z
		 M40.5,11.8c-0.2,0.2-0.3,0.4-0.5,0.6s-0.4,0.3-0.6,0.5c-0.1,0.1-0.1,0.2-0.1,0.2c0,0.1,0,0.1,0,0.2c0,0-0.1,0-0.1,0.1
		c-0.1,0-0.1,0-0.1,0c-0.1,0.1-0.1,0.2-0.1,0.2c0,0.1,0,0.1-0.1,0.2c0,0-0.1,0.1-0.1,0.1c-0.1,0-0.1,0-0.1,0c0,0.1,0,0.1,0,0.2
		c0,0.1,0,0.1,0,0.1s-0.1,0.1-0.1,0.1s-0.1,0.1-0.1,0.1s-0.1,0.1-0.1,0.2c0,0.1,0,0.1,0,0.2c-0.1,0-0.1,0-0.1,0.1
		c-0.1,0.2-0.3,0.4-0.4,0.7c-0.1,0.2-0.2,0.5-0.3,0.7c-0.2,0-0.3,0-0.4,0.2c-0.1,0.1-0.2,0.2-0.3,0.3c-0.1,0.3-0.2,0.7-0.3,1.2
		c-0.1,0.4-0.2,0.8-0.3,1.1c0,0.1,0,0.1-0.1,0.1c0,0,0,0,0,0c-0.1,0.1-0.1,0.3-0.1,0.4s0,0.2,0,0.4c0,0.2,0,0.4-0.1,0.6
		c0,0.2,0,0.4,0,0.6c0,0.2,0,0.4,0.1,0.7c0,0.2,0.1,0.4,0.3,0.6c0-0.1,0-0.1,0.1-0.1c0,0,0.1,0,0.1-0.1c0,0,0.1-0.1,0.1-0.1
		c0,0,0.1-0.1,0.1-0.1c0,0,0,0,0.1,0c0,0,0.1,0,0.1,0c0,0,0,0,0-0.1c0,0,0-0.1,0-0.1c0.1,0,0.1-0.1,0.2-0.1s0.1,0,0.1-0.1
		c0.1-0.1,0.1-0.1,0.2-0.2c0.1-0.1,0.1-0.1,0.2-0.2c0,0,0,0,0-0.1s0-0.1,0-0.1c0,0,0.1,0,0.1,0c0.1,0,0.1,0,0.1,0c0,0,0,0,0-0.1
		c0,0,0-0.1,0-0.1c0,0,0,0,0.1-0.1c0.1,0,0.1,0,0.1-0.1c0,0,0.1-0.1,0.1-0.1c0-0.1,0-0.1,0.1-0.1c0,0,0-0.1,0.1-0.1
		c0,0,0.1-0.1,0.1-0.1c0.1-0.2,0.2-0.4,0.3-0.5s0.2-0.3,0.3-0.5c0-0.1,0.1-0.1,0.1-0.1s0-0.1,0.1-0.2c0.1-0.1,0.1-0.3,0.2-0.4
		c0.1-0.1,0.1-0.2,0.2-0.4c0-0.1,0.1-0.2,0.1-0.3c0.1-0.1,0.1-0.2,0.1-0.4c0.1-0.1,0.1-0.3,0.2-0.4c0.1-0.1,0.1-0.2,0.1-0.3
		c0-0.1,0-0.2,0-0.2c0,0,0-0.1,0-0.1v-0.1c0-0.1,0-0.1,0-0.1c0,0,0,0,0,0c0.1-0.2,0.2-0.4,0.2-0.6c0-0.1,0.1-0.3,0.1-0.4
		s0-0.2,0.1-0.3c0,0,0,0,0.1-0.1c0.1,0,0.1-0.1,0.1-0.1c0-0.1,0-0.1,0-0.2c0-0.1,0-0.1,0-0.2c0-0.1,0-0.2,0.1-0.4
		c0-0.1,0.1-0.2,0.1-0.4c0.1-0.3,0.1-0.6,0.1-0.9c0-0.3,0-0.6,0-1c-0.1,0-0.1,0-0.2-0.1C40.7,11.8,40.6,11.8,40.5,11.8z M41.9,14.6
		c0.1,0.1,0.1,0.1,0.1,0.2c0,0.1,0,0.1-0.1,0.2s-0.1,0.1-0.1,0.2c0,0.1-0.1,0.1-0.1,0.2c0.1,0,0.2,0,0.3,0.2c-0.1,0-0.1,0-0.1,0.1
		c-0.1,0-0.1,0-0.1-0.1c0,0,0-0.1,0.1-0.1c-0.1-0.1-0.2,0-0.2,0.1c-0.1,0.1-0.1,0.3,0,0.5c0.1,0,0.2,0.1,0.3,0.2
		c-0.1,0-0.2-0.1-0.3-0.1c-0.1,0-0.1,0-0.2,0.2c0.1,0.1,0.1,0.1,0.1,0.1s0,0.1-0.1,0.1c-0.1,0-0.1,0.1-0.2,0.1c-0.1,0-0.1,0-0.1,0.1
		s0,0,0.1,0c0.1,0,0.1,0,0.1,0.1c-0.1,0.1-0.2,0.2-0.2,0.4c0,0.2,0,0.3-0.1,0.4c0,0,0,0-0.1,0c-0.1,0-0.1,0-0.1,0
		c-0.1,0.1-0.1,0.2-0.1,0.3C41,18,41,18.1,41,18.1c0,0-0.1,0-0.1,0c-0.1,0-0.1,0-0.1,0c0,0,0,0.1,0,0.2c0,0.1,0,0.1-0.1,0.1
		c0,0-0.1,0-0.1,0s-0.1,0-0.1-0.1c0-0.1,0.1-0.1,0.2-0.1c0-0.2,0.1-0.3,0.1-0.5s0.1-0.3,0.1-0.4c-0.1,0-0.2,0-0.2,0.1
		s-0.1,0.1-0.1,0.1c0-0.2,0-0.3,0.2-0.3c0.1,0,0.3,0,0.4,0.1c0-0.1,0-0.1,0-0.1s0-0.1-0.1-0.1c0,0,0-0.1,0-0.1c0,0,0.1,0,0.2,0
		c0-0.1,0-0.1,0-0.2S41,16.7,41,16.6s-0.1-0.1-0.1-0.1s0-0.1,0.1-0.1c0,0,0,0.1,0,0.1s0,0.1,0.1,0.1c0-0.1,0-0.2,0-0.3
		c0-0.1,0.1-0.1,0.1-0.1c0-0.2,0-0.4,0-0.5c0-0.2-0.1-0.2-0.4-0.2c0,0.2,0,0.3-0.1,0.4c-0.1,0.1-0.1,0.3-0.2,0.4
		c-0.1,0.1-0.1,0.2-0.1,0.4s0,0.2,0,0.4c-0.2,0-0.3,0-0.2,0.1c0,0.1,0,0.2,0,0.3c0,0-0.1,0-0.1,0c-0.1,0-0.1,0-0.1,0.1
		c0,0,0,0.1,0,0.1c0,0.1,0,0.1,0,0.1c0,0-0.1,0-0.1,0c-0.1,0-0.1,0-0.1,0.1C40,18,40,18,40,18s0,0,0,0.1c0,0-0.1,0.1-0.1,0.1
		c0,0-0.1,0-0.1,0.1c0.1,0,0.1,0.1,0.1,0.1c0,0.1,0,0.1,0.1,0.2c0,0-0.1,0-0.2-0.1c-0.1,0-0.1,0-0.1,0.1c0,0.1-0.1,0.2-0.2,0.3
		c-0.1,0.1-0.2,0.1-0.2,0.2c0.2,0,0.3,0,0.4,0c0.1,0,0.2,0,0.2,0.1c0,0.1,0,0.1-0.1,0.1s-0.1,0-0.1,0c0,0-0.1,0-0.1-0.1
		c-0.1,0-0.1,0-0.1,0c-0.1,0.1-0.2,0.1-0.2,0.1c-0.1,0-0.1,0.1-0.2,0.1c0.1,0.1,0.1,0.1,0.1,0.1c-0.1,0-0.1,0-0.2,0c0,0,0,0,0,0.1
		s0,0.1,0,0.1c0,0,0,0-0.1,0c-0.1,0-0.1,0-0.1,0.1c-0.1,0.1-0.1,0.3-0.1,0.5c-0.1,0-0.2,0-0.2,0.1c0,0.1-0.1,0.2-0.1,0.2
		c-0.1,0-0.1,0-0.1,0.1s0.1,0.1,0.1,0c0-0.1,0.1-0.2,0.2-0.3c0.1-0.1,0.2-0.1,0.3-0.2c0-0.2,0-0.3,0.1-0.4c0.1-0.1,0.2-0.2,0.3-0.2
		c-0.1,0-0.1-0.1-0.1-0.1c0,0,0,0,0.1-0.1c0,0,0,0,0.1-0.1s0-0.1-0.1-0.2c0.1-0.1,0.2-0.1,0.3-0.1c0.1,0,0.2,0,0.2,0.1
		c0.1,0.1,0.1,0.1,0.2,0.2c0.1,0.1,0.1,0.1,0.2,0.2c-0.1,0-0.2,0-0.2,0s-0.1-0.1-0.1-0.1c0,0,0-0.1-0.1-0.1c0-0.1-0.1-0.1-0.1-0.1
		c0,0.1,0,0.2,0,0.2s-0.1,0.1-0.1,0.1c0,0-0.1,0.1-0.1,0.1c0,0,0,0.1,0,0.2c-0.2,0-0.3,0.1-0.3,0.4c0.1,0,0.2,0,0.2-0.1
		c0-0.1,0.1-0.2,0.1-0.2c0,0.2,0,0.3-0.1,0.4c0,0.1-0.1,0.1-0.1,0.1s-0.1,0-0.2,0c-0.1,0-0.1-0.1-0.2-0.1c0,0.2-0.1,0.3-0.2,0.4
		s-0.2,0.2-0.2,0.4c0,0,0,0,0,0s0,0.1,0,0.1s0,0.1,0,0.1c0,0-0.1,0-0.1,0c-0.1,0-0.2,0-0.2,0.1h0.4c0-0.1,0-0.2,0.1-0.3
		c0.1-0.1,0.1-0.2,0.1-0.4c0.1,0,0.1,0,0.2,0c0.1,0,0.1,0,0.1-0.1c0,0-0.1,0-0.1,0c0,0,0,0,0.1-0.1c0.1,0,0.1,0.1,0.1,0.1
		c0,0.1,0,0.1-0.1,0.2c0,0.1,0,0.1-0.1,0.2c0,0.1,0,0.2,0,0.3c-0.1,0.1-0.2,0.1-0.3,0s-0.1,0-0.1,0.1c0.1,0.1,0.2,0.1,0.3,0.1
		c0.1-0.1,0.2-0.2,0.3-0.2c-0.1,0-0.1-0.1-0.1-0.2c0.1,0,0.1,0,0.2,0c0,0,0-0.1,0.1-0.1c0,0,0-0.1,0.1-0.1c0,0,0.1,0,0.2,0
		c0,0.1,0,0.1-0.1,0.1c0,0-0.1,0.1,0,0.1c-0.1,0-0.2,0.1-0.3,0.1c0,0.1-0.1,0.2-0.1,0.3c0,0,0,0,0,0.1c0,0.1,0,0.1,0,0.2
		c0,0-0.1,0.1-0.2,0.1s-0.2,0.1-0.1,0.2h0.4c0-0.1,0-0.1,0-0.2c0-0.1,0.1-0.1,0.2,0c0-0.1,0-0.1,0.1-0.1s0.1,0,0.1-0.1
		c0.1-0.1,0.1-0.2,0.1-0.3c0-0.1,0-0.2,0.1-0.3c0,0,0.1,0,0.1,0c0.1,0,0.1,0,0.1-0.1c-0.1,0-0.1,0-0.1,0c0,0,0,0,0.1-0.1
		s0.1-0.1,0.1-0.1c0,0,0-0.1,0-0.1c-0.1,0-0.1-0.1-0.1-0.1s0-0.1,0-0.1c0,0.1,0.1,0.1,0.2,0.1c0-0.1,0-0.2,0-0.2
		c0,0,0.1-0.1,0.1-0.1c0,0,0.1,0,0.1,0c0,0,0,0,0-0.1c0,0,0-0.1,0.1-0.1c0.1,0,0.2-0.1,0.2-0.1c0-0.1,0-0.1,0-0.2c0-0.1,0-0.1,0-0.2
		l0.1-0.1c0,0,0.1,0,0.1-0.1c0,0,0,0,0-0.1c0-0.1,0-0.1,0-0.2c0-0.1,0-0.1,0-0.1c0,0,0-0.1,0.1-0.1c0,0,0.1,0,0.1-0.1
		c0,0,0-0.1,0-0.1s0-0.1,0-0.1c0,0,0.1,0,0.1-0.1s0.1,0,0.1-0.1c0-0.1,0-0.1,0-0.2s0-0.1,0.2-0.1c0-0.3,0-0.4,0.1-0.6
		c0.1-0.1,0.1-0.3,0-0.4c0.1,0,0.1,0.1,0.1,0.1c0,0,0,0,0-0.2c0-0.2,0.1-0.3,0.1-0.4c0.1-0.1,0-0.1-0.1-0.2c0.1,0,0.2,0,0.2,0
		c0,0,0-0.1,0-0.1c0-0.1,0-0.1,0-0.1c0,0,0.1,0,0.2,0c0.1-0.4,0-0.6-0.2-0.8c0.1,0,0.1,0,0.1,0.1c0,0,0.1,0,0.2,0c0-0.2,0-0.3,0-0.4
		s0.1-0.2,0.1-0.3c-0.2-0.1-0.3-0.1-0.3-0.2c0.2,0,0.3,0,0.4-0.1c0-0.1,0-0.2,0-0.4c-0.1-0.1-0.1-0.1-0.2,0c0.1,0.1,0.1,0.1,0.1,0.1
		s-0.1-0.1-0.2-0.1c-0.1,0-0.2-0.1-0.2-0.1C42,14.5,41.9,14.5,41.9,14.6z M38.9,21.3c0.1,0,0.1,0,0.1,0c0-0.1,0-0.1,0-0.2
		c0-0.1,0-0.1-0.1-0.1c0,0,0,0-0.1,0.1C38.9,21.2,38.9,21.3,38.9,21.3C38.8,21.4,38.8,21.4,38.9,21.3z M39,22.7c0,0,0-0.1,0.1-0.1
		c0-0.1,0-0.1-0.1-0.2c0,0.1,0,0.2-0.1,0.2S38.9,22.7,39,22.7z M39.8,20.6C39.7,20.6,39.7,20.5,39.8,20.6c0.1-0.1,0.1-0.1,0.2,0
		c0,0,0,0.1,0,0.1c0,0-0.1,0.1-0.1,0.1c0,0,0,0-0.1,0.1c0,0,0,0,0.1,0.1c0,0.1,0,0.1-0.2,0c-0.1-0.1-0.2-0.1-0.1-0.3L39.8,20.6
		C39.9,20.7,39.9,20.6,39.8,20.6z M39.9,19.5c0.1-0.2,0.2-0.4,0.2-0.6c0.1-0.2,0.2-0.3,0.4-0.4c0,0.1-0.1,0.2-0.1,0.2
		c0,0,0,0.1-0.1,0.2c0,0,0,0.1,0,0.2c0,0.1,0,0.2-0.1,0.2c0,0,0,0-0.1,0c0,0-0.1,0-0.1,0c0,0-0.1,0-0.1,0.1S40,19.6,39.9,19.5z
		 M40.4,19.6C40.5,19.6,40.5,19.5,40.4,19.6c0.1-0.1,0.2-0.1,0.2,0c0,0.2-0.1,0.3-0.2,0.4c-0.1,0.1-0.2,0.2-0.2,0.4
		C40,20.5,40,20.4,40,20.3s0.1-0.2,0.1-0.2c0.1-0.1,0.1-0.1,0.1-0.2c0-0.1,0-0.1-0.1-0.1c0-0.1,0-0.1,0-0.1
		C40.3,19.7,40.4,19.7,40.4,19.6C40.5,19.7,40.5,19.7,40.4,19.6C40.5,19.7,40.5,19.7,40.4,19.6z M40.4,17.6c0.1,0.1,0.1,0.2,0,0.4
		c-0.1,0.2-0.2,0.4-0.2,0.5c-0.1-0.1-0.1-0.1-0.1-0.2c0-0.1,0-0.2,0.1-0.2s0.1-0.2,0.1-0.2S40.4,17.7,40.4,17.6z M41.3,14.4
		c0.1,0,0.2,0,0.3,0.1v-0.8h-0.2c-0.1,0-0.1,0-0.1,0.1c0,0,0.1,0,0.1,0c0.1,0,0.1,0,0.1,0.1c-0.2,0-0.2,0-0.2,0.1c0,0.1,0,0.2,0,0.3
		h-0.1h-0.1c-0.1,0.2-0.1,0.4,0,0.5s0.1,0.2,0.1,0.3c-0.1,0-0.1,0-0.1-0.1c0,0-0.1-0.1-0.2,0c0,0.1,0,0.2,0.1,0.2s0,0.1-0.1,0.2
		c0.1,0,0.2,0,0.2,0s0.1,0.1,0.2,0c0-0.2,0-0.3,0-0.4s0-0.1,0.1-0.1v-0.2c0-0.1,0-0.2,0-0.2c0,0,0,0-0.1,0c0,0-0.1,0-0.1,0.1
		c0,0,0,0,0-0.1c0.1,0,0.1,0,0.1-0.1C41.4,14.5,41.4,14.5,41.3,14.4z M41.5,16.9C41.5,16.9,41.6,16.9,41.5,16.9
		c0.1-0.1,0.2-0.1,0.2-0.1c0,0,0,0.1,0,0.1c0,0,0,0-0.1,0C41.6,17,41.6,17,41.5,16.9c0,0.1,0,0.1,0,0.2c0,0.1,0,0.2,0,0.2
		c0,0,0,0-0.1,0s0-0.1,0-0.2c0-0.1,0-0.1,0-0.2H41.5L41.5,16.9z M41.4,13.6c0.2,0,0.3,0,0.3-0.1c0-0.1,0-0.2-0.1-0.3
		c0.1,0,0.1,0,0.1-0.1s0-0.1-0.1,0c-0.1,0.1-0.1,0.2-0.1,0.2C41.6,13.4,41.5,13.5,41.4,13.6z M41.8,16.3
		C41.9,16.3,41.9,16.4,41.8,16.3c0.1,0.1,0.1,0.1,0,0.1s-0.1,0.1-0.1,0.1s0,0.1,0,0.1c-0.1,0-0.1,0-0.1-0.1c0,0,0-0.1,0.1-0.1
		C41.7,16.5,41.8,16.4,41.8,16.3C41.8,16.4,41.8,16.4,41.8,16.3z"/>
	<path d="M46.5,11.6c0.1,0.1,0.2,0.2,0.3,0.3s0.1,0.2,0,0.3c0.1,0,0.1,0,0.1,0c0,0,0-0.1,0-0.1c0,0,0-0.1,0-0.1c0,0,0.1,0,0.1,0
		c0.1,0,0.2,0,0.2,0.1c0,0.1,0,0.1,0.1,0.2c0.1-0.1,0.2-0.1,0.3,0c0.1,0.1,0.2,0.1,0.4,0c-0.1,0.4-0.2,0.8-0.2,1.2s-0.1,0.9-0.2,1.2
		c0,0.1,0,0.1,0.1,0.1c0,0,0,0,0.1-0.1c0,0,0-0.1,0.1-0.1c0,0,0.1,0,0.1,0c0.1-0.2,0.2-0.4,0.4-0.6s0.4-0.3,0.5-0.5
		c0.1-0.1,0.2-0.2,0.4-0.4c0.1-0.1,0.2-0.2,0.4-0.4c0,0,0.1-0.1,0.1-0.2c0-0.1,0-0.1,0.1-0.2c0,0,0.1-0.1,0.2-0.1
		c0.1,0,0.1,0,0.2-0.1c0,0,0,0,0-0.1c0,0,0,0,0-0.1c0.1,0,0.1,0,0.2-0.1c0.1-0.1,0.1-0.2,0.2-0.3c0.2,0,0.4-0.1,0.5-0.1
		c0.2,0,0.3,0,0.5,0.1c0,0,0.1,0.1,0.1,0.1s0.1,0.1,0.1,0.1c0.1,0,0.1,0.1,0.2,0.1c0.1,0,0.2,0,0.3,0.1c0,0,0,0,0,0c0,0,0,0,0.1,0
		c0.2,0,0.4,0.1,0.6,0.2c0.2,0.1,0.4,0.2,0.6,0.3c0,0.1,0,0.2,0.1,0.2c0.1,0.1,0,0.1,0,0.2c-0.1,0.1-0.1,0.1,0,0.1h0.1
		c0,0.1,0,0.2-0.1,0.3c0,0.1-0.1,0.2,0,0.4c0,0.1,0,0.2,0,0.3s0,0.2,0,0.3c0,0,0,0.1-0.1,0.1s-0.1,0-0.1,0.1c0,0.2,0,0.3-0.1,0.4
		c0,0,0,0.1,0,0.1c0,0,0,0.1,0,0.2c0,0,0,0.1,0,0.1c0,0,0,0,0,0c0,0.1,0,0.2,0,0.3c0,0.1,0,0.2,0,0.3c-0.1,0.3-0.1,0.5-0.2,0.8
		c-0.1,0.3-0.1,0.5-0.2,0.8c0,0.1-0.1,0.3-0.1,0.3c0,0.1,0,0.2-0.1,0.4c0,0.1,0,0.1,0,0.1c0,0-0.1,0.1-0.1,0.2c0,0,0,0.1,0,0.1
		c0,0,0,0.1,0,0.1l-0.1,0.3c-0.1,0.1-0.1,0.2-0.1,0.4c0,0.2,0,0.4,0,0.6c-0.1,0-0.2,0.1-0.3,0.1c-0.1,0-0.1,0-0.2-0.1
		c-0.1,0-0.1,0.1-0.1,0.1c0,0,0,0.1-0.1,0.1c0,0,0,0-0.1-0.1s-0.1,0-0.1,0.1c-0.1,0-0.2-0.1-0.3-0.4c-0.1,0.1-0.3,0.2-0.4,0.1
		s-0.2-0.2-0.3-0.4c-0.1-0.1-0.2,0-0.3,0c0,0.1-0.1,0.1-0.2,0c0-0.1-0.1-0.1-0.1-0.2c-0.1-0.1-0.2-0.1-0.3-0.1c-0.1-0.6-0.1-1,0-1.4
		c0.1-0.4,0.1-0.8,0.1-1.2c-0.1,0-0.1,0-0.1,0.1s0,0.2,0,0.2c0,0,0,0-0.1,0c0,0-0.1,0-0.1,0c0,0.1-0.1,0.1-0.1,0.2
		c0,0.1-0.1,0.1-0.1,0.2c0,0.1-0.1,0.1-0.1,0.1s-0.1,0.1-0.1,0.1c-0.1,0.1-0.2,0.3-0.2,0.4c0,0.1-0.1,0.3-0.2,0.4
		c0,0.1-0.1,0.1-0.2,0.1c-0.1,0-0.1,0.1-0.1,0.2v0.1c0,0.1-0.1,0.1-0.1,0.1S48,19,47.9,19c0,0.1-0.1,0.1-0.1,0.2s-0.1,0.1-0.1,0.2
		c0,0,0,0,0,0c0,0,0,0,0,0.1c0,0,0,0.1,0,0.1c0,0.1,0,0.1,0,0.2c0,0,0,0-0.1,0s-0.1,0-0.1,0c0,0,0,0,0,0c0,0,0,0,0,0
		c0,0.1-0.1,0.1-0.1,0.1c0,0.1,0,0.1,0,0.2c0,0.1,0,0.2,0,0.2c0,0,0,0-0.1,0c-0.1,0-0.1,0-0.1,0v0.1v0c-0.1,0.1-0.1,0.2-0.2,0.5
		s-0.1,0.4-0.2,0.5c0,0.1,0,0.1,0,0.2s0,0.1,0,0.2c0,0,0,0.1-0.1,0.1c0,0-0.1,0.1-0.1,0.1c0,0.1,0,0.2,0,0.3c0,0.1,0,0.2,0,0.3
		c0,0,0,0.1,0,0.1c0,0,0,0.1,0,0.1h-0.1c0,0,0,0.1,0,0.1c0,0,0,0.1,0,0.1c0,0-0.1,0.1-0.1,0.2c0,0.1,0,0.2-0.1,0.4c0,0,0,0-0.1,0
		c0,0,0,0,0,0.1c0,0,0,0.1-0.1,0.1c0,0,0,0.1,0,0.2c0,0-0.1,0-0.2,0l-0.1,0.1c0,0-0.1,0-0.2-0.1C45.6,24,45.5,24,45.5,24
		c-0.1,0.1-0.1,0.1-0.1,0.1c0,0-0.1-0.1-0.3-0.1c-0.1,0-0.2,0-0.2-0.1c-0.1-0.1-0.2-0.1-0.3-0.1c-0.1,0-0.2,0-0.3-0.1
		c-0.1,0-0.2-0.1-0.1-0.3c-0.1,0.1-0.2,0.1-0.4,0.1c-0.1-0.1-0.1-0.2-0.1-0.2c0-0.1-0.1-0.1-0.3-0.1c0-0.2,0-0.3,0-0.5
		c0-0.2,0-0.4,0-0.6h0.1l0.1-0.1c0,0,0,0,0-0.1c0,0,0,0,0-0.1c0-0.1,0.1-0.3,0.1-0.6c0-0.3,0-0.5,0.1-0.7c0-0.1,0-0.2,0.1-0.5
		c0-0.2,0.1-0.4,0.1-0.6c0,0,0-0.1,0-0.1c0-0.1,0-0.1,0-0.1c0.1,0,0.1-0.1,0-0.2s0-0.2,0-0.4c0.1,0,0.1,0,0.1-0.1v-0.1
		c0-0.1,0.1-0.1,0.1-0.1c0,0,0-0.1,0-0.2c0-0.1,0-0.1,0-0.2c0-0.1,0-0.1,0-0.2c0,0,0-0.1,0-0.1c0-0.1,0-0.1,0-0.1
		c0,0,0.1-0.1,0.1-0.2c0-0.1,0-0.2,0.1-0.4c0-0.1,0-0.3,0-0.4c0-0.1,0-0.3,0-0.4c0-0.1,0-0.2,0.1-0.4c0-0.1,0.1-0.2,0.1-0.4
		c0,0,0-0.1,0-0.1c0-0.1,0-0.1,0-0.1c0.1-0.1,0.1-0.2,0.1-0.4s0-0.4,0.1-0.5c0,0,0,0,0.1,0c0,0,0,0,0-0.1c0,0,0-0.1,0-0.1
		c0-0.1,0-0.1,0-0.1c0,0,0.1-0.1,0.1-0.2c0-0.1,0-0.2,0.1-0.3c0,0,0,0,0,0c0,0,0,0,0-0.1c0-0.1,0-0.2,0-0.3c0-0.1,0-0.2,0.1-0.4
		c0,0,0,0,0.1,0c0,0,0,0,0-0.1c0-0.1,0-0.2,0-0.3s0.1-0.2,0.1-0.3c0,0,0-0.1,0-0.1c0-0.1,0-0.1,0-0.1h0.1h0.1c0,0,0-0.1,0-0.1
		s0-0.1,0-0.1c0,0,0.1-0.1,0.1-0.1c0-0.1,0-0.1,0-0.3c0.1,0,0.2,0,0.2,0c0.1,0,0.1,0,0.1,0c0,0,0.1,0,0.1,0s0.1,0,0.2,0
		c0,0.1,0,0.1,0,0.2c0,0.1,0,0.1,0,0.2c0.1,0,0.1,0,0.1-0.1c0-0.1,0-0.1,0.1-0.1c0,0,0.1,0,0.1,0c0,0,0,0.1-0.1,0.1
		c0,0.1,0,0.1,0.1,0.1c0,0,0,0,0.1,0C46.5,11.8,46.5,11.7,46.5,11.6z M44.9,17.4c0.1,0.2,0.1,0.3,0,0.4s-0.1,0.2,0,0.3
		c0.1,0.1,0.3,0.1,0.4,0.2c-0.1,0-0.2,0.1-0.2,0.2c0,0.1,0,0.2-0.1,0.4c0,0.1,0,0.2-0.1,0.3c0,0.1-0.1,0.1-0.2,0c0,0.1,0,0.1,0,0.1
		c0,0,0.1,0,0.1,0.1c0,0,0.1,0,0.1,0.1c0,0,0,0.1,0,0.1c-0.1,0-0.1,0-0.2,0.1c0,0.1,0,0.2,0,0.3c0,0.1,0,0.2,0.1,0.3
		c0,0.1,0.1,0.2,0.1,0.2c-0.1,0-0.1,0-0.2,0c-0.1,0-0.1,0-0.1,0.1c0.1,0,0.1,0,0.1,0.1c0,0,0,0.1,0,0.1c0,0,0,0.1,0,0.1
		c0,0,0.1,0,0.2,0c0-0.2,0-0.4,0.1-0.5s0.1-0.3,0-0.4c0,0,0.1,0,0.1-0.1s0.1-0.1,0-0.2H45c0,0,0,0,0.1-0.1c0,0,0.1,0,0.1,0
		c0,0,0-0.1,0-0.1s0-0.1,0-0.1c0,0,0-0.1,0.1-0.1s0.1-0.1,0.1-0.1c0,0-0.1,0-0.1-0.1c-0.1,0-0.1-0.1,0-0.2h0.1h0.1c0,0,0-0.1,0-0.1
		c0-0.1,0-0.1,0-0.1c0,0,0-0.1,0-0.1c0,0,0,0,0,0s0,0,0,0c0-0.1,0-0.1,0-0.2c0-0.1-0.1-0.1-0.1-0.1c0.1-0.1,0.1-0.1,0.2-0.1
		c0-0.1,0-0.3,0-0.3c0-0.1,0-0.1,0-0.2v-0.1c0,0,0-0.1,0-0.1c0,0,0,0,0.1,0c0-0.1,0-0.1-0.1-0.2c0-0.1,0-0.1,0-0.2h0h0.1
		c0.1-0.1,0.1-0.3,0-0.3c0-0.1-0.1-0.1-0.1-0.2c0-0.1,0-0.2,0-0.2c0-0.1,0-0.1,0.1-0.1s0.1,0,0.1,0c0,0,0,0-0.1-0.1c0,0,0-0.1,0-0.2
		s0-0.2,0-0.2c0.1,0,0.2,0,0.2-0.1c0,0.1,0,0,0-0.1c0-0.1,0-0.2,0-0.3c0-0.1,0-0.1,0-0.2c0,0,0-0.1,0-0.1c0,0,0-0.1,0-0.1
		s0-0.1,0-0.1c0-0.1-0.1-0.2-0.1-0.3c0-0.1-0.1-0.2-0.2-0.1c0,0.2-0.1,0.4-0.1,0.5s0,0.3,0.1,0.6c-0.2-0.1-0.2-0.1-0.2,0
		c0.1,0.1,0.1,0.2,0.1,0.3c-0.1-0.1-0.1-0.1-0.2-0.1c0,0,0,0,0,0.1c0,0,0,0.1,0.1,0.1c0,0,0,0.1,0,0.1c0,0,0,0-0.1,0
		c-0.1,0-0.1,0-0.1,0c0,0,0,0.1,0,0.1s0.1,0.1,0.1,0.1c0,0,0-0.1,0-0.1c0,0,0,0,0.1,0.1c0,0.1-0.1,0.2-0.1,0.2c0,0.1-0.1,0-0.2,0
		c0,0.1,0,0.2,0.1,0.3c0.1,0.1,0.1,0.2,0.1,0.3c-0.1,0.1-0.2,0.2-0.1,0.3s0,0.3,0,0.4c0,0,0,0-0.1,0s0,0,0,0.1c0,0,0,0,0.1,0
		c0,0,0,0,0,0.1h-0.1h-0.1c0,0.1,0,0.2,0,0.3s0,0.2-0.1,0.3c0-0.1,0-0.1,0-0.2s0-0.1,0.1-0.2c0-0.1,0-0.1,0-0.2
		C45,17.5,45,17.4,44.9,17.4z M45.2,16.7c0-0.2,0-0.4-0.1-0.4C45,16.4,45,16.5,45.2,16.7c-0.1,0-0.2,0-0.2,0.1c0,0.1,0,0.1,0.1,0.1
		C45.1,16.9,45.1,16.8,45.2,16.7C45.1,16.7,45.2,16.7,45.2,16.7z M45.6,13.6C45.7,13.6,45.7,13.6,45.6,13.6c0.1-0.2,0.1-0.2,0.2-0.2
		c0-0.2,0-0.3-0.1-0.3c-0.1,0-0.1,0.1,0,0.3C45.6,13.5,45.6,13.5,45.6,13.6z M46.5,19.4c0.1,0,0.1-0.1,0-0.2c0,0,0-0.1,0-0.1
		c0-0.1,0.1-0.1,0.1-0.1c0.1-0.2,0-0.3-0.2-0.3c0,0.3,0.1,0.4,0.1,0.5s0,0.2-0.1,0.3C46.4,19.5,46.5,19.5,46.5,19.4z M47.2,14
		c0,0-0.1,0-0.1,0c0,0-0.1,0-0.1,0.1c0.1,0,0.1,0.1,0.1,0.1S47,14.4,47,14.4c0,0.1,0,0.2,0,0.2s0,0.1,0,0.1c-0.1,0.1-0.1,0.2,0,0.2
		c0,0,0.1,0.1,0.1,0.2h-0.1c0,0-0.1,0.1-0.1,0.2c0,0.1,0,0.2,0,0.2c0,0.1,0,0.1,0.1,0.2c0,0,0.1,0.1,0.1,0.2c0,0,0,0-0.1,0.1
		c-0.1,0-0.1,0.1-0.1,0.1c0,0.1,0,0.2,0,0.2c0,0.1,0,0.2,0,0.3c0,0,0,0-0.1,0s0,0,0,0.1c0,0,0,0,0.1,0c0,0,0,0,0,0h-0.1h-0.1
		c0,0,0,0,0,0.1c0,0,0,0.1,0,0.1c0,0.1,0,0.3,0,0.3c0,0.1,0,0.2,0.1,0.3c-0.1,0-0.1,0.1-0.2,0.2c0,0.1,0,0.2,0,0.3
		c0,0.1,0,0.2,0,0.3c0,0.1,0,0.2-0.1,0.2c0,0,0.1,0.1,0.1,0.2c0.1,0.1,0.1,0.1,0.1-0.1c-0.1,0-0.2-0.1-0.1-0.1
		c0.1-0.1,0.1-0.1,0.1-0.2c0-0.1,0-0.1,0-0.2s0-0.2,0-0.3s0-0.1,0-0.2c0,0,0.1,0,0.2,0c0-0.1,0-0.2-0.1-0.2s-0.1-0.1-0.1-0.2
		c0.1,0,0.1-0.1,0.1-0.1c0-0.1,0-0.1,0.1-0.2c0-0.1,0.1-0.1,0.1-0.2c0-0.1,0-0.2,0.1-0.2h-0.1c0,0,0-0.1,0-0.1c0,0,0.1,0,0.1,0
		c0,0,0-0.1-0.1-0.1c0,0,0-0.1-0.1-0.1c0,0,0.1-0.1,0.1-0.1c0.1,0,0.1,0,0-0.1c0,0,0-0.1,0-0.1c0,0,0.1,0,0.1,0c0-0.1,0-0.2-0.1-0.2
		c0-0.1,0-0.1-0.1-0.1c0.1,0,0.1,0,0.1-0.1c0-0.1,0-0.1,0-0.2c0,0,0,0,0.1,0c0.1,0,0.1,0,0.1-0.1c-0.1,0-0.1,0-0.1-0.1
		c0.1-0.1,0.1-0.2,0.1-0.2c0,0-0.1,0-0.1,0c-0.1,0-0.1,0-0.1,0c0.1,0,0.2,0,0.2,0c0.1,0,0,0-0.1-0.1c0,0,0-0.1,0-0.1s0.1,0,0.1,0
		c0-0.1,0-0.2,0-0.3c0-0.1,0-0.2,0-0.3h-0.1c0,0-0.1-0.1-0.1-0.2c0-0.1,0-0.2-0.1-0.2c0.1,0,0.1,0,0.1-0.1c0-0.1-0.1-0.1-0.1,0
		C47,13.5,47,13.6,47,13.7C47,13.9,47.1,14,47.2,14z M50.4,18.7c0-0.2,0-0.3,0-0.4c0.1-0.1,0.1-0.1,0-0.2c0,0,0-0.1-0.1-0.1
		c0,0-0.1,0-0.1,0.1c0,0,0,0.1,0,0.1c0,0.1,0,0.1-0.1,0.2c0,0.1,0,0.1,0,0.2C50.3,18.7,50.3,18.7,50.4,18.7z M51,15.6
		c0.1-0.2,0.1-0.3,0-0.3c0,0-0.1,0-0.1,0c0,0-0.1,0.1-0.1,0.2C50.8,15.5,50.9,15.6,51,15.6z M51.9,15.1c-0.1,0.1-0.2,0.2-0.2,0.4
		s0,0.3,0,0.6c-0.1,0-0.2,0-0.2,0.2c0,0.1,0,0.2-0.1,0.2c0,0,0,0,0.1,0c0.1,0,0.1,0,0,0.1h-0.1h-0.1c0,0,0,0,0,0.1
		c0,0.1,0,0.1,0,0.1c0,0.2,0,0.4,0,0.7c0,0.2,0,0.5-0.1,0.7c0,0,0.1,0,0.1,0s0.1,0,0.1-0.1c0-0.1,0-0.2,0.1-0.2
		c0.1-0.1,0.1-0.1,0.1-0.2c0-0.1,0-0.1,0-0.1s0.1,0,0.1,0c0-0.1,0-0.2,0-0.2c0-0.1,0-0.2,0-0.2c0,0,0,0,0.1,0c0.1,0,0.1,0,0.1,0
		c0-0.1,0-0.1-0.1-0.2s-0.1-0.1-0.1-0.1c0,0,0-0.1,0.1-0.1l0.1-0.1c0-0.1,0.1-0.1,0.1-0.2c0-0.1,0-0.1,0-0.1c0-0.1,0.1-0.2,0.1-0.2
		c0-0.1,0-0.2-0.1-0.2c0.1-0.1,0.1-0.1,0.1-0.2c0-0.1,0-0.1,0-0.2c0-0.1,0-0.2,0.1-0.2c0,0,0-0.1-0.1-0.2c0,0,0,0,0-0.1
		c0,0,0.1,0,0.1,0c0-0.1,0-0.2,0-0.3c0-0.1-0.1-0.1-0.2-0.1c0,0.2-0.1,0.3-0.1,0.3C51.8,14.8,51.8,14.9,51.9,15.1z M52.4,17.1
		c0-0.1,0-0.2,0-0.2c0,0,0-0.1,0-0.1s0-0.1,0-0.1c0,0,0-0.1,0.1-0.2h-0.4C52.2,16.7,52.2,17,52.4,17.1z M52.5,16.3
		c0.1-0.2,0.1-0.5,0.2-0.7c0.1-0.2,0.1-0.4-0.1-0.6c0.1,0,0.1,0,0.1,0s0-0.1,0-0.2c-0.1,0-0.2,0-0.2,0c0,0-0.1,0.1-0.1,0.1
		c0,0.1,0,0.1-0.1,0.2c0,0.1,0,0.1-0.1,0.2c0,0,0.1,0,0.1,0c0.1,0,0.1,0,0.1,0.1c-0.2,0.1-0.2,0.1-0.2,0.2c0,0.1,0.1,0.2,0.2,0.3
		c-0.1,0-0.1,0-0.1-0.1s-0.1,0-0.2,0c0,0.1,0,0.1,0.1,0.2c0.1,0,0.1,0.1,0.1,0.1c-0.1,0-0.1,0-0.2,0s-0.1,0.1-0.1,0.2H52.5z
		 M52.9,14.8c0,0,0,0,0-0.1s0.1-0.1,0.1-0.1c0-0.1,0-0.2,0-0.2c0,0-0.1,0-0.1,0.1c0,0.1-0.1,0.2-0.1,0.3
		C52.8,14.8,52.8,14.8,52.9,14.8C52.9,14.8,52.9,14.8,52.9,14.8z"/>
	<path d="M66.5,7.7c0,0.1-0.1,0.3-0.2,0.4S66.1,8.3,66,8.4c-0.1,0.1-0.2,0.2-0.4,0.4c-0.1,0.1-0.3,0.2-0.4,0.4c0,0,0,0,0,0.1
		c0,0,0,0-0.1,0.1c-0.1,0-0.2,0-0.2,0.1c-0.1,0.1-0.1,0.2-0.2,0.3c0,0-0.1,0.1-0.1,0.1s-0.1,0.1-0.1,0.2c-0.1,0.1-0.2,0.1-0.3,0.2
		c-0.2,0.1-0.2,0.2-0.3,0.3c0,0.1,0,0.2-0.1,0.2c-0.1,0-0.1,0-0.1,0.1c0,0.1-0.1,0.2-0.3,0.3c-0.2,0.1-0.3,0.2-0.4,0.3
		c0,0,0,0.1,0,0.1c0,0,0,0.1,0,0.1c0,0-0.1,0.1-0.2,0.2c-0.1,0.1-0.2,0.2-0.3,0.2c0,0,0,0.1,0,0.1c0,0,0,0.1,0,0.1
		c0,0-0.1,0.1-0.2,0.1c-0.1,0-0.1,0.1-0.1,0.1l-0.1,0.2l-0.1,0.2c0,0,0,0-0.1,0c0,0-0.1,0-0.1,0v0.1c0,0-0.1,0.1-0.2,0.2
		s-0.1,0.2-0.1,0.2c0,0,0,0.1-0.1,0.1c-0.1,0-0.1,0.1-0.1,0.1c0,0-0.1,0.1-0.1,0.2c-0.1,0.1-0.1,0.2-0.2,0.2c0,0-0.1,0-0.1,0.1
		c-0.1,0.1-0.1,0.1-0.1,0.1c0,0,0,0.1,0,0.2c0,0.1,0,0.1,0,0.2c-0.1,0.1-0.2,0.1-0.2,0.2c0,0-0.1,0.1-0.1,0.1s-0.1,0.1-0.1,0.2
		c0,0.1,0,0.2,0.1,0.3s0.2,0.1,0.3,0.1c0.1,0.1,0.3,0.2,0.4,0.2c0.1,0,0.2,0.1,0.4,0.2c0.3,0.2,0.5,0.4,0.9,0.6
		c0.1,0.1,0.2,0.1,0.2,0.1c0.1,0,0.2,0.1,0.3,0.2c0.1,0.1,0.2,0.3,0.4,0.5s0.3,0.4,0.4,0.6c0,0,0,0.1,0,0.3c0,0.1,0,0.2,0.1,0.3
		c0.1,0.1,0.1,0.1,0,0.1s0,0,0,0.1c0,0,0,0,0.1,0s0,0,0,0.1c0,0,0,0.1,0,0.2c0,0.1,0,0.2-0.1,0.3c-0.1,0.1-0.1,0.1-0.1,0.1
		c0,0,0,0.1,0,0.2c0,0-0.1,0.1-0.1,0.1c-0.1,0-0.1,0-0.1,0.1c0,0,0,0.1,0,0.2c0,0.1,0,0.1-0.1,0.2c0,0,0,0.1-0.1,0.1s-0.1,0-0.1,0.1
		c0,0,0,0.1,0,0.1c0,0.1,0,0.1,0,0.1c0,0-0.1,0-0.1,0s-0.1,0-0.1,0.1c0,0.1,0,0.1-0.1,0.2c-0.1,0.1-0.2,0.1-0.2,0.2
		c-0.1,0.1-0.1,0.1-0.2,0.2c-0.1,0.1-0.1,0.1-0.2,0.1c-0.2,0.2-0.3,0.4-0.5,0.5c-0.2,0.1-0.3,0.3-0.6,0.5c0,0-0.1,0.1-0.1,0.1
		c-0.1,0.1-0.1,0.1-0.2,0.1c0,0-0.1,0-0.1,0.1c-0.1,0.1-0.1,0.1-0.1,0.1c0,0-0.1,0.1-0.1,0.1c-0.1,0.1-0.1,0.1-0.2,0.1
		c-0.1,0-0.1,0-0.2,0.1c0,0.1-0.1,0.1-0.2,0.1c-0.1,0-0.2,0.1-0.2,0.1c-0.1,0.1-0.2,0.1-0.3,0.2c0,0,0,0-0.1,0s-0.1,0-0.1,0
		c-0.1,0.1-0.2,0.1-0.3,0.2c0,0-0.1,0-0.1,0c-0.1,0-0.1,0-0.1,0c-0.1,0.1-0.2,0.1-0.3,0.2s-0.4,0.1-0.6,0.1c-0.2,0-0.4,0-0.6,0
		c-0.2,0-0.4-0.1-0.5-0.1c0,0,0,0,0-0.1c0,0,0,0-0.1,0h-0.1c-0.1,0-0.1-0.1-0.2-0.1c-0.1,0-0.2-0.1-0.3-0.1c0,0-0.1,0-0.1,0
		c0,0-0.1,0-0.1-0.1c-0.1,0-0.2-0.1-0.4-0.1c-0.2,0-0.3-0.1-0.4-0.2c-0.1,0-0.1-0.1-0.2-0.1c-0.1-0.1-0.1-0.1-0.2-0.2
		c0,0-0.1-0.1-0.1-0.1c-0.1,0-0.1-0.1-0.1-0.1c0,0,0-0.1,0-0.2c0-0.1,0-0.1,0-0.2c0,0-0.1,0-0.1-0.1c-0.1,0-0.1,0-0.1-0.1
		c0-0.1,0-0.1,0-0.2s0-0.2,0-0.2c0,0,0,0,0-0.1c0-0.1,0-0.2-0.1-0.2c0-0.1,0-0.2-0.1-0.3c0-0.1,0-0.2,0-0.2c0.1-0.1,0.1-0.1,0.1-0.1
		s0-0.1,0-0.2c0,0,0-0.1,0-0.1s0-0.1,0-0.1c0.1-0.1,0.1-0.2,0.2-0.5c0-0.2,0.1-0.4,0.1-0.6c0,0,0,0,0.1,0c0,0,0,0,0-0.1
		c0,0,0-0.1,0-0.3c0-0.1,0-0.2,0.1-0.3h0.1c0,0,0-0.1,0-0.1c0-0.1,0-0.1,0-0.1c0.1-0.1,0.1-0.2,0.2-0.4s0.1-0.4,0.2-0.5
		c0-0.1,0.1-0.1,0.1-0.2c0-0.1,0.1-0.1,0.1-0.2c0,0,0-0.1,0-0.1c0-0.1,0-0.1,0-0.1c0.1-0.1,0.1-0.1,0.2-0.1c0,0,0.1-0.1,0.1-0.3
		c0,0,0-0.1,0-0.1c0-0.1,0-0.1,0-0.1c0,0,0.1-0.1,0.1-0.1c0.1,0,0.1-0.1,0.2-0.2c0.2-0.3,0.3-0.5,0.4-0.8s0.3-0.5,0.5-0.7
		c0-0.1,0-0.2,0-0.2c0-0.1-0.1-0.1-0.1-0.1c-0.1,0-0.1-0.1-0.2-0.1c-0.1,0-0.1-0.1-0.1-0.1s-0.1-0.1-0.1-0.1c0-0.1,0-0.1-0.1-0.1
		s-0.1-0.1-0.2-0.1c-0.1,0-0.1-0.1-0.2-0.1s-0.1-0.1-0.1-0.2s0-0.1,0-0.2c0,0,0,0-0.1,0c0,0,0,0,0-0.1c0-0.1,0-0.1-0.1-0.2
		s-0.1-0.2-0.2-0.2c0-0.1-0.1-0.1-0.1-0.2c0-0.1-0.1-0.1-0.1-0.2c0,0,0-0.1,0-0.1s0-0.1,0-0.1h-0.1h0c0,0,0,0,0-0.1c0,0,0-0.1,0-0.1
		C55,11.5,55,11.3,54.9,11s-0.1-0.5,0-0.8c0-0.1,0-0.1,0.1-0.2c0,0,0-0.1,0.1-0.1c0-0.1,0.1-0.3,0.1-0.4c0-0.2,0-0.3,0.1-0.4
		c0,0,0.1-0.1,0.1-0.2s0.1-0.2,0.1-0.3c0-0.1,0.1-0.2,0.1-0.3c0-0.1,0.1-0.2,0.1-0.2c0-0.1,0.1-0.1,0.1-0.1s0.1,0,0.1-0.1
		c0.1-0.1,0.2-0.2,0.2-0.3s0.2-0.2,0.2-0.3c0,0,0.1-0.1,0.1-0.2c0-0.1,0.1-0.1,0.1-0.2c0,0,0,0,0.1,0c0,0,0.1,0,0.1,0V7V7
		c0,0,0.1,0,0.1,0C56.9,7,57,7,57,7C57,6.9,57,6.9,57,6.9s0.1-0.1,0.1-0.1c0,0,0,0,0.1,0c0,0,0.1,0,0.1,0c0.1-0.1,0.2-0.2,0.4-0.2
		c0.2-0.1,0.4-0.1,0.5-0.2C59,6.1,59.7,6,60.3,6c0.3,0,0.6,0.1,0.8,0.1c0.3,0.1,0.5,0.1,0.8,0.2c0.2,0.1,0.5,0.1,0.7,0.1
		c0.3,0,0.5,0.1,0.7,0.3c0.3-0.1,0.6-0.1,0.9-0.1c0,0,0.1,0.1,0.1,0.1c0.1,0,0.1,0.1,0.1,0.1c0,0-0.1,0-0.1,0s0,0.1,0,0.1
		c0,0,0.1,0,0.1,0c0.1,0,0.1,0,0.1,0.1c0.1,0,0.3,0,0.3,0s0.2,0.1,0.3,0.1c0.1,0,0.1,0.1,0.1,0.1c0,0.1,0,0.1,0.1,0.1l0.1-0.1
		c0,0,0.1-0.1,0.1-0.1c0,0,0.1,0.1,0.1,0.1c0,0.1,0.1,0.1,0.1,0.1c0,0,0.1,0,0.1,0c0.1,0,0.1,0,0.1,0c0,0,0,0,0,0.1s0,0.1,0.1,0.1
		c0.1,0,0.1,0,0.2,0C66.4,7.7,66.4,7.7,66.5,7.7z M55.2,20.9c0-0.2,0-0.3,0-0.4c0.1-0.1,0.1-0.1,0.1-0.2c0,0,0-0.1,0-0.1
		c0,0,0,0-0.1,0.1c0,0.1,0,0.2-0.1,0.3S55,20.8,55.2,20.9z M55.5,19.7c0.1-0.2,0.1-0.3,0.1-0.3s0,0-0.1,0c0,0-0.1,0.1-0.1,0.2
		S55.4,19.7,55.5,19.7z M55.9,18.7c0.1-0.2,0.1-0.3,0.1-0.4s0,0-0.1,0s-0.1,0.1-0.1,0.2C55.8,18.6,55.8,18.6,55.9,18.7z M57.1,18.8
		c0-0.2,0-0.3,0.1-0.4c0-0.1,0-0.2-0.2-0.3c0,0.1,0,0.2,0,0.2s0,0.1-0.1,0.1c0.1-0.1,0.2,0,0.2,0c0,0.1,0,0.1,0,0.2
		c0,0.1,0,0.2-0.1,0.2C56.9,18.9,57,18.9,57.1,18.8z M58.6,15.4c-0.1,0-0.2,0-0.1,0c0,0.1,0,0.1,0,0.1s-0.1,0-0.1,0c0,0-0.1,0-0.1,0
		c0,0.1,0,0.1,0,0.2c0,0.1,0,0.1-0.1,0.1c0,0.1,0,0.2,0.1,0.2s0,0.1-0.1,0.1c0,0-0.1,0-0.1,0c-0.1,0-0.1,0-0.2,0c-0.1,0-0.1,0-0.1,0
		c0,0,0,0,0.1,0.1c0.1,0,0.2,0,0.3,0c0.1,0,0.2,0,0.2,0.1c-0.1,0.1-0.1,0.1-0.2,0.1c-0.1,0-0.1,0-0.2,0c-0.1,0-0.1,0-0.2,0
		s-0.1,0-0.2,0.1v0.5c-0.1,0-0.2,0-0.2,0.1c0,0,0.1,0.1,0.1,0.2c0,0-0.1,0-0.1,0.1c0,0-0.1,0.1-0.1,0.1l0,0c0,0.1,0,0.2,0,0.4
		s0,0.3,0.1,0.3c0.1-0.5,0.2-0.9,0.5-1.2c-0.1,0-0.1-0.1-0.1-0.1c0-0.1,0-0.1-0.1-0.2c0.1,0,0.2,0,0.3,0s0.1,0.1,0.1,0.1
		c0,0,0,0.1,0,0.1s0,0.1,0.1,0.1c0-0.1,0.1-0.1,0.1-0.2c0,0,0.1-0.1,0.1-0.2c0.1-0.1,0.1-0.2,0.1-0.2c0,0,0-0.1-0.1-0.2c0,0,0,0,0,0
		c0,0,0.1,0,0.1-0.1c0,0,0,0,0,0s0,0,0-0.1h0.2c0-0.1,0-0.1,0-0.2s0-0.1-0.1-0.1c0.1,0.1,0.2,0.1,0.2,0
		C58.5,15.6,58.6,15.5,58.6,15.4C58.6,15.5,58.6,15.4,58.6,15.4c0.1-0.1,0.1-0.2,0.1-0.2c0-0.1,0-0.1,0.1-0.2c0,0,0-0.1-0.1,0
		c0,0.1,0,0.1-0.1,0.2C58.5,15.2,58.5,15.3,58.6,15.4z M57.3,15.9C57.3,15.9,57.3,15.8,57.3,15.9c0-0.1,0-0.2,0-0.2
		c0-0.1,0-0.1-0.1-0.1c0,0,0,0-0.1,0.1C57.2,15.7,57.2,15.7,57.3,15.9C57.2,15.9,57.3,15.9,57.3,15.9z M57.5,18.5
		c0,0,0.1-0.1,0.1-0.1s0.1-0.1,0.1-0.1c0-0.1,0-0.1,0.1-0.1c0,0,0,0,0,0c0-0.1,0-0.2,0-0.2s0-0.1,0-0.1c0,0.1,0,0.1,0.1,0.1
		c-0.1-0.1-0.1-0.1-0.1-0.2s0-0.1,0-0.1c0,0,0-0.1,0-0.1c0,0-0.1,0-0.2,0c-0.1,0-0.1,0.1-0.1,0.3c0,0.2,0.1,0.3,0.1,0.3
		c-0.1,0-0.2,0-0.3,0.1c0.1,0.1,0.1,0.2,0,0.4c0,0.1-0.1,0.2-0.1,0.3c0,0.1-0.1,0.2-0.1,0.2c0,0.1,0,0.1,0.1,0.2
		c0.1-0.1,0.2-0.2,0.1-0.4S57.4,18.7,57.5,18.5z M60,13.4c-0.1,0.1-0.2,0.2-0.3,0.4c-0.1,0.2-0.1,0.3-0.2,0.4
		c-0.1,0.1-0.1,0.2-0.1,0.4c0,0.1,0,0.3-0.1,0.4c0,0,0,0-0.1,0.1c0,0-0.1,0.1-0.1,0.1c0,0.1-0.1,0.1-0.1,0.2c0,0.1-0.1,0.1-0.1,0.1
		c0,0.2-0.1,0.4-0.1,0.6c-0.1,0.2-0.2,0.3-0.3,0.4c0,0.1,0.1,0.2,0.1,0.3c0,0.1,0,0.2-0.1,0.3c0,0.1,0,0.1-0.1,0.1s-0.1,0-0.1,0.1
		c0,0.1,0,0.2,0,0.2s0,0.2-0.1,0.3c0,0.1,0,0.1-0.1,0.2c0,0.1,0,0.1,0,0.1c0,0.1,0,0.1,0,0.1c0,0,0,0,0,0c-0.1,0.2-0.1,0.3,0,0.4
		c0,0.1,0,0.1-0.1,0.2c0,0,0,0,0,0.1c0,0,0,0.1,0,0.1c0,0.1-0.1,0.1-0.1,0.1s0,0,0.1,0.1s0,0.1,0,0.1c-0.1,0-0.1,0-0.1,0
		c0,0,0,0.1,0.1,0.1c0,0.1,0.1,0.1,0.1,0.1l-0.1,0.1l-0.1,0.1c0,0.1,0,0.1,0,0.1c0,0,0.1,0.1,0.1,0.1c0,0.1,0,0.1,0,0.1
		c0,0,0,0.1-0.1,0.1c0,0.1,0,0.2,0,0.2c0,0.1,0,0.1,0,0.2c-0.1,0-0.1,0-0.1,0.1c0,0,0,0.1-0.1,0.1c0,0,0,0,0,0.1s0.1,0,0.1,0
		c-0.1,0.2-0.1,0.2-0.2,0.2s0,0,0.1,0.1c0,0,0,0.1-0.1,0.2c-0.1,0.1,0,0.1,0.1,0.1c0-0.1,0-0.1,0.1-0.1c0.1,0,0.1,0,0.2,0
		c0,0,0.1,0,0.1-0.1s0.1-0.1,0.1-0.1c0,0,0.1,0,0.1-0.1c0,0,0.1-0.1,0.1-0.1c0,0,0.1,0,0.1,0c0,0,0.1,0,0.1,0c0,0,0,0,0-0.1
		s0-0.1,0-0.1c0.1-0.1,0.2-0.1,0.3-0.2c0.1,0,0.2-0.1,0.3-0.1c0,0,0.1-0.1,0.1-0.1s0.1-0.1,0.1-0.1c0.1,0,0.1-0.1,0.2-0.2
		c0.1-0.1,0.2-0.2,0.3-0.3c0.1-0.1,0.2-0.2,0.3-0.3s0.1-0.2,0.1-0.2c0-0.1,0-0.1,0-0.1c0,0,0,0,0.1,0c0.1-0.1,0.1-0.2,0.1-0.3
		s0.1-0.2,0.1-0.3c0.1-0.1,0.1-0.2,0.1-0.2c0,0,0-0.1,0.1-0.2s0.1-0.3,0.1-0.5s0-0.4,0-0.6h-0.1c0,0,0,0,0-0.1c0,0,0-0.1,0-0.1
		c0,0,0-0.1-0.1-0.1c0,0-0.1-0.1-0.1-0.1l-0.1-0.1c0,0-0.1-0.1-0.1-0.1c0-0.1-0.1-0.1-0.1-0.1c-0.1,0-0.2,0-0.2-0.1
		c0-0.1-0.1-0.1-0.2-0.1c-0.2,0.1-0.3,0.3-0.4,0.5c-0.1,0.2-0.2,0.4-0.3,0.6c0,0-0.1,0.1-0.1,0.1s-0.1,0.1-0.1,0.1
		c0,0.1-0.1,0.2-0.1,0.2c0,0.1,0,0.1-0.1,0.2c0,0,0,0.1-0.1,0.1c0,0-0.1,0.1-0.1,0.1c0,0.1-0.1,0.1-0.1,0.2c0,0.1,0,0.1-0.1,0.1
		c0-0.1,0-0.1,0-0.2c0-0.1,0-0.1,0-0.1c0,0,0.1-0.1,0.1-0.1c0.1,0,0.1,0,0.1,0c0-0.1,0-0.2,0-0.3s0-0.2,0-0.3c0,0,0.1,0,0.1,0
		c0.1,0,0.1,0,0.1-0.1c-0.1,0-0.1,0-0.1-0.1c0.1-0.1,0.1-0.1,0.1-0.1c0,0-0.1,0-0.1,0c-0.1,0-0.1,0-0.1-0.1c0.1,0,0.2,0,0.3,0
		c0.1,0,0.1,0,0.1-0.1c0,0-0.1,0-0.1,0s-0.1,0-0.1-0.1c0-0.1,0.1-0.1,0.1-0.1c0,0,0-0.1-0.1-0.2c0,0,0.1,0,0.1,0
		c0.1,0,0.1,0,0.1-0.1s0-0.1,0-0.1c0,0,0,0,0.1,0c0.1-0.1,0.1-0.2,0.1-0.3s-0.1-0.1-0.1-0.2c0,0,0,0,0.1,0c0.1,0,0.1-0.1,0.1-0.1
		c0-0.1,0-0.1,0-0.2c0,0-0.1-0.1-0.1-0.1c0.1,0,0.2-0.2,0.3-0.4c0.1-0.2,0.2-0.4,0.2-0.4c0.1-0.1,0.1-0.2,0.1-0.3s0-0.2,0-0.3
		c0,0,0-0.1,0.1-0.1c0.1,0,0.1,0,0.1-0.1c0-0.1,0-0.1,0-0.2c0-0.1-0.1-0.1-0.1-0.1c0.2,0,0.3,0,0.3-0.1c0-0.1,0-0.1-0.1-0.2
		c0,0,0.1,0,0.1,0c0,0,0.1,0,0.1-0.1c0,0,0-0.1,0.1-0.1c0,0,0.1,0,0.1,0c0,0,0-0.1-0.1-0.1s-0.1-0.1-0.1-0.1c0,0,0.1-0.1,0.2-0.1
		c0.1,0,0.1-0.1,0.1-0.1c0.1,0,0.1,0,0.1-0.1c0,0,0,0,0-0.1c0,0,0-0.1,0-0.1c0,0,0-0.1,0.1-0.1C60.2,12.6,60,12.8,60,13.4z
		 M57.8,15.9C57.7,15.9,57.7,15.9,57.8,15.9c-0.1,0.1-0.1,0.2,0,0.2s0.1,0.1,0.1,0.1s0.1,0,0.1-0.1c-0.1,0-0.1-0.1-0.1-0.1
		c0-0.1,0.1-0.2,0.1-0.3s0.1-0.2,0.1-0.3c0-0.1,0-0.1-0.2-0.1c0,0.2,0,0.3-0.1,0.4C57.8,15.6,57.8,15.7,57.8,15.9z M60.2,8.2
		c-0.1,0-0.2,0.1-0.2,0.1c-0.1,0-0.1,0.1-0.2,0.1c0,0-0.1,0-0.1,0.1c0,0.1,0,0.1,0,0.1c-0.1,0-0.1,0-0.2,0c-0.1,0-0.1,0-0.2,0.1
		c0,0-0.1,0.1-0.2,0.2C59,9,58.9,9.1,58.8,9.2s-0.2,0.2-0.2,0.3c-0.1,0.1-0.1,0.2-0.1,0.2c0,0.1,0,0.1-0.1,0.2s-0.1,0.1-0.2,0.2
		c0,0,0,0.1-0.1,0.1s0,0.1-0.1,0.1C58,10.5,58,10.6,58,10.6c0,0.1,0,0.2,0,0.3c0,0.1,0,0.1-0.1,0.2c0,0,0,0.1,0,0.2
		c0,0.2,0,0.3,0,0.4s0.1,0.1,0.1,0.1c0,0,0,0-0.1,0c0,0,0,0,0,0.1c0,0.1,0,0.1,0,0.1c0,0,0,0.1,0.1,0.2c0,0.1,0,0.1,0,0.2
		c0,0.1,0,0.1,0.1,0.1c0-0.1,0-0.1,0.1-0.2c0,0,0.1-0.1,0.1-0.1s0.1-0.1,0.1-0.1c0-0.1,0-0.1,0-0.2c0.1,0,0.2-0.1,0.3-0.2
		c0.1-0.1,0.2-0.2,0.2-0.2c0,0,0.1-0.1,0.1-0.1c0-0.1,0.1-0.1,0.1-0.2c0.1-0.2,0.3-0.4,0.5-0.6c0.2-0.2,0.4-0.4,0.5-0.6
		c0-0.1,0.1-0.2,0.1-0.2c0,0,0,0,0.1,0c0,0,0.1,0,0.1,0c0,0,0-0.1,0-0.1s0-0.1,0-0.1c0,0,0.1,0,0.1,0c0,0,0.1,0,0.1-0.1
		c0-0.1,0-0.1,0-0.1c0,0,0,0,0.1,0C61,9,61.2,8.8,61.5,8.5S62,8,62.2,7.7c-0.3,0-0.7,0-1.1,0.1C60.8,8,60.5,8.1,60.2,8.2z
		 M58.2,15.1c0-0.1,0.1-0.2,0.1-0.3c0.1-0.1,0.1-0.2,0.1-0.3c-0.1,0-0.2,0.1-0.3,0.2C58.1,14.9,58.1,15,58.2,15.1z M58.9,13.1
		c0,0.1-0.1,0.2-0.1,0.3c0,0-0.1,0.1-0.1,0.2c0,0,0,0-0.1,0c0,0,0,0,0,0c-0.1,0.2-0.1,0.3-0.1,0.3c0,0.1,0,0.1-0.1,0.2
		c0.1,0,0.1,0,0.1,0c0,0,0,0,0,0.1c0,0,0,0,0,0.1c0,0,0,0,0.1,0.1c0-0.1,0.1-0.2,0.2-0.3c0.1-0.1,0.1-0.2,0.1-0.3h-0.1
		c-0.1-0.1,0-0.1,0.1-0.1c0.1,0,0.1,0,0.2-0.1c0-0.1,0-0.1,0-0.2c0-0.1,0-0.2,0-0.2c0,0,0.1,0,0.1,0c0.1,0,0.1,0,0.1-0.1
		c-0.1-0.1-0.2-0.1-0.2-0.1S58.9,13.1,58.9,13.1z M59.2,12.4c0,0.1,0,0.1,0,0.2c0,0.1,0,0.2,0,0.2c0,0.1,0,0.1,0.1,0.1
		c0,0,0.1,0,0.1-0.1c-0.1-0.1-0.1-0.1-0.1-0.2c0-0.1,0-0.2,0.1-0.3c0.1,0,0.1,0,0.1,0c0,0,0.1-0.1,0.1-0.1c0-0.1,0-0.1,0-0.1
		s0-0.1-0.1-0.1C59.5,12.1,59.3,12.3,59.2,12.4z M60.9,11.7c0,0.2-0.1,0.3-0.2,0.4c-0.1,0.1-0.2,0.2-0.2,0.4c0.1,0,0.1,0,0.2,0
		c0.1,0,0.1,0,0.2-0.1c-0.1,0-0.1-0.1-0.1-0.1c0,0,0,0,0.1,0c0,0,0.1,0,0.1-0.1S61,12,61,12c0,0,0,0-0.1,0s0-0.1,0.1-0.1
		c0,0,0.1,0,0.1,0s0.1,0,0.1-0.1c-0.1,0-0.2,0-0.2,0S60.9,11.7,60.9,11.7z M60.9,11.6c0,0,0.1,0.1,0.2,0.1c0.1,0.1,0.2,0,0.2-0.1
		c-0.1,0-0.1,0-0.1-0.1s0-0.1-0.1-0.1c0,0.1,0,0.1-0.1,0.1C61,11.4,61,11.5,60.9,11.6z M61.2,11.2c0.1,0,0.2,0,0.2-0.1
		c0-0.1,0.1,0,0.2,0.1c0-0.1,0-0.2,0.1-0.2c0.1,0,0.1-0.1,0.1-0.1c-0.1,0-0.1,0-0.1,0c0-0.1,0-0.1,0-0.2s0-0.1,0-0.1
		c0,0,0,0-0.1,0.1c0,0.2-0.1,0.3-0.2,0.3C61.3,11,61.2,11.1,61.2,11.2z"/>
</g>
</svg>
